/* XPM */
static char * kmyfirewall_xpm[] = {
"32 32 334 2",
"  	c None",
". 	c #FE0000",
"+ 	c #E60000",
"@ 	c #E10000",
"# 	c #EA0000",
"$ 	c #EF0000",
"% 	c #E40000",
"& 	c #DA0000",
"* 	c #D70000",
"= 	c #DC0000",
"- 	c #F50F0F",
"; 	c #F02525",
"> 	c #EE4949",
", 	c #EB6C6C",
"' 	c #F89999",
") 	c #FBAFAF",
"! 	c #FDC4C4",
"~ 	c #FDCACA",
"{ 	c #FCC2C2",
"] 	c #FBB2B2",
"^ 	c #F59494",
"/ 	c #E87272",
"( 	c #DD4343",
"_ 	c #D42929",
": 	c #EF0808",
"< 	c #ED5858",
"[ 	c #F29191",
"} 	c #F7BCBC",
"| 	c #FBC8C8",
"1 	c #FCCCCC",
"2 	c #FDCCCC",
"3 	c #FECCCC",
"4 	c #FBC9C9",
"5 	c #F6B7B7",
"6 	c #ED9999",
"7 	c #D54D4D",
"8 	c #BF1313",
"9 	c #E82525",
"0 	c #EB7F7F",
"a 	c #F8CCCC",
"b 	c #FACCCC",
"c 	c #FBCCCC",
"d 	c #F9CCCC",
"e 	c #F6C6C6",
"f 	c #E58E8E",
"g 	c #B91A1A",
"h 	c #DE0000",
"i 	c #E46969",
"j 	c #F4BEBE",
"k 	c #F8C9C9",
"l 	c #F9C9C9",
"m 	c #FAC9C9",
"n 	c #FCC9C9",
"o 	c #FDC9C9",
"p 	c #FECBCB",
"q 	c #FECFCF",
"r 	c #FEC9C9",
"s 	c #F7C9C9",
"t 	c #F5C5C5",
"u 	c #D55C5C",
"v 	c #AF0A0A",
"w 	c #CC0000",
"x 	c #EEA4A4",
"y 	c #F3B5B5",
"z 	c #F5B5B5",
"A 	c #F7B5B5",
"B 	c #F9B5B5",
"C 	c #FAB5B5",
"D 	c #FBB5B5",
"E 	c #FCB5B5",
"F 	c #FDC3C3",
"G 	c #FFF1F1",
"H 	c #FDB9B9",
"I 	c #F6B5B5",
"J 	c #F4B5B5",
"K 	c #F2B5B5",
"L 	c #E88B8B",
"M 	c #C81818",
"N 	c #9E0000",
"O 	c #EE0000",
"P 	c #C90000",
"Q 	c #EB9393",
"R 	c #F0A2A2",
"S 	c #F2A2A2",
"T 	c #F4A2A2",
"U 	c #F6A2A2",
"V 	c #F7A2A2",
"W 	c #F9A2A2",
"X 	c #FAA2A2",
"Y 	c #FCBDBD",
"Z 	c #FFF5F5",
"` 	c #FCB3B3",
" .	c #F8A2A2",
"..	c #F5A2A2",
"+.	c #F3A2A2",
"@.	c #F1A2A2",
"#.	c #EFA2A2",
"$.	c #E57D7D",
"%.	c #CC1616",
"&.	c #B00000",
"*.	c #8F0000",
"=.	c #F20000",
"-.	c #D20000",
";.	c #C30000",
">.	c #C80000",
",.	c #DC4747",
"'.	c #E97C7C",
").	c #ED8282",
"!.	c #EF8282",
"~.	c #F28282",
"{.	c #F48282",
"].	c #F68888",
"^.	c #F9A6A6",
"/.	c #FDD9D9",
"(.	c #FFFFFF",
"_.	c #FDE4E4",
":.	c #F89898",
"<.	c #F48484",
"[.	c #F38282",
"}.	c #F08282",
"|.	c #EE8282",
"1.	c #EC8282",
"2.	c #E97F7F",
"3.	c #D83E3E",
"4.	c #C80505",
"5.	c #BD0000",
"6.	c #A20000",
"7.	c #C50000",
"8.	c #D11111",
"9.	c #DE4343",
"0.	c #E86969",
"a.	c #EB6969",
"b.	c #EE6969",
"c.	c #F06969",
"d.	c #F37878",
"e.	c #FBCECE",
"f.	c #FFF7F7",
"g.	c #FEF2F2",
"h.	c #F69999",
"i.	c #F59999",
"j.	c #EF7070",
"k.	c #EC6969",
"l.	c #EA6969",
"m.	c #E66666",
"n.	c #DF4B4B",
"o.	c #CD0B0B",
"p.	c #C60000",
"q.	c #BF0000",
"r.	c #B40000",
"s.	c #7C0000",
"t.	c #D40000",
"u.	c #C70000",
"v.	c #CD0000",
"w.	c #D20101",
"x.	c #DB1E1E",
"y.	c #E13535",
"z.	c #E74343",
"A.	c #E94646",
"B.	c #F06C6C",
"C.	c #FCE4E4",
"D.	c #FFFCFC",
"E.	c #FACECE",
"F.	c #FAD8D8",
"G.	c #EC6363",
"H.	c #E54141",
"I.	c #E13838",
"J.	c #D81A1A",
"K.	c #D00404",
"L.	c #CA0000",
"M.	c #BB0000",
"N.	c #940000",
"O.	c #FD0000",
"P.	c #D00000",
"Q.	c #D50202",
"R.	c #D90808",
"S.	c #DF1414",
"T.	c #E21D1D",
"U.	c #EA4F4F",
"V.	c #FBDCDC",
"W.	c #FFFEFE",
"X.	c #FDEFEF",
"Y.	c #EC7171",
"Z.	c #DD1212",
"`.	c #D90909",
" +	c #D30101",
".+	c #CF0000",
"++	c #A10000",
"@+	c #6C0000",
"#+	c #E70000",
"$+	c #BE0000",
"%+	c #CB0000",
"&+	c #CE0000",
"*+	c #D30000",
"=+	c #D60000",
"-+	c #DC1010",
";+	c #EA6565",
">+	c #E53B3B",
",+	c #F8C7C7",
"'+	c #FCEBEB",
")+	c #DA1111",
"!+	c #D50303",
"~+	c #D10000",
"{+	c #C00000",
"]+	c #BC0000",
"^+	c #AD0000",
"/+	c #7B0000",
"(+	c #DB0000",
"_+	c #D50000",
":+	c #DD2828",
"<+	c #F7CACA",
"[+	c #F6BCBC",
"}+	c #E45656",
"|+	c #E04545",
"1+	c #C10000",
"2+	c #B30000",
"3+	c #810000",
"4+	c #E25050",
"5+	c #FBE7E7",
"6+	c #F9DFDF",
"7+	c #BA0000",
"8+	c #840000",
"9+	c #E76A6A",
"0+	c #FDF4F4",
"a+	c #FEFAFA",
"b+	c #FEF8F8",
"c+	c #C40000",
"d+	c #C20000",
"e+	c #E66B6B",
"f+	c #FDF3F3",
"g+	c #F2A7A7",
"h+	c #EA7777",
"i+	c #F5C7C7",
"j+	c #830000",
"k+	c #D90000",
"l+	c #E66767",
"m+	c #ED8989",
"n+	c #E34848",
"o+	c #F1A8A8",
"p+	c #DD0000",
"q+	c #E44C4C",
"r+	c #FBE0E0",
"s+	c #FBE5E5",
"t+	c #E64E4E",
"u+	c #E23535",
"v+	c #F2A5A5",
"w+	c #FADCDC",
"x+	c #F8D6D6",
"y+	c #DB2020",
"z+	c #D50404",
"A+	c #740000",
"B+	c #D80000",
"C+	c #E75858",
"D+	c #EF8989",
"E+	c #F3A3A3",
"F+	c #EA5E5E",
"G+	c #DF0D0D",
"H+	c #DE0B0B",
"I+	c #E33232",
"J+	c #F7C6C6",
"K+	c #EF9B9B",
"L+	c #DB1818",
"M+	c #620000",
"N+	c #E00C0C",
"O+	c #F29696",
"P+	c #E52727",
"Q+	c #EC5E5E",
"R+	c #F28F8F",
"S+	c #E20D0D",
"T+	c #E00000",
"U+	c #EE7A7A",
"V+	c #DF0B0B",
"W+	c #900000",
"X+	c #420000",
"Y+	c #E20000",
"Z+	c #E30404",
"`+	c #F18080",
" @	c #EC4646",
".@	c #E61010",
"+@	c #EA3434",
"@@	c #E50404",
"#@	c #EF6B6B",
"$@	c #E51717",
"%@	c #630000",
"&@	c #E80000",
"*@	c #E90000",
"=@	c #EC2020",
"-@	c #FCD4D4",
";@	c #EB1010",
">@	c #EE3434",
",@	c #FAC7C7",
"'@	c #FEF3F3",
")@	c #F69898",
"!@	c #9D0000",
"~@	c #EC0000",
"{@	c #ED0000",
"]@	c #F34C4C",
"^@	c #FCCDCD",
"/@	c #FCDBDB",
"(@	c #F24F4F",
"_@	c #F89D9D",
":@	c #FFF9F9",
"<@	c #F78A8A",
"[@	c #F02424",
"}@	c #700000",
"|@	c #F30000",
"1@	c #F40000",
"2@	c #F40C0C",
"3@	c #FA7676",
"4@	c #FA7C7C",
"5@	c #F51C1C",
"6@	c #F73F3F",
"7@	c #F62525",
"8@	c #6F0000",
"9@	c #F80000",
"0@	c #F70000",
"a@	c #F80404",
"b@	c #F80808",
"c@	c #DF0000",
"d@	c #960000",
"e@	c #710000",
"f@	c #9A0000",
"g@	c #F00000",
"h@	c #A80000",
"i@	c #800000",
"j@	c #F10000",
"k@	c #F90000",
"l@	c #FC0000",
"m@	c #660000",
"n@	c #750000",
"o@	c #8D0000",
"p@	c #980000",
"q@	c #A00000",
"r@	c #9C0000",
"s@	c #690000",
"                                                                ",
"                      . + @ # $ % & * =                         ",
"                - ; > , ' ) ! ~ { ] ^ / ( _                     ",
"              : < [ } | 1 2 3 3 2 2 1 4 5 6 7 8                 ",
"            9 0 a b c 1 2 3 3 3 3 2 2 c b d e f g               ",
"          h i j k l m n o o p q r o n 4 m l s t u v             ",
"        h w x y z A B C D E F G H E C B A I J K L M N           ",
"      O P P Q R S T U V W X Y Z ` X  .V ..+.@.#.$.%.&.*.        ",
"    =.-.;.>.,.'.).!.~.{.].^./.(._.:.<.[.}.|.1.2.3.4.5.6.        ",
"    % 7.;.>.8.9.0.a.b.c.d.e.f.(.g.h.i.j.k.l.m.n.o.p.q.r.s.      ",
"    t.5.;.u.v.w.x.y.z.A.B.C.(.(.D.E.F.G.H.I.J.K.L.p.q.M.N.      ",
"  O.;.5.;.u.w P.Q.R.S.T.U.V.(.(.(.W.X.Y.Z.`. +.+P 7.q.M.++@+    ",
"  #+M.$+;.u.%+&+*+=+-+;+>+,+(.(.(.(.(.'+)+!+~+v.P 7.{+]+^+/+    ",
"  (+M.q.;.u.%+&+-._+:+<+[+'+(.(.(.(.(.(.}+|+P.v.P 7.1+5.2+3+    ",
"  t.$+1+7.u.%+&+~+t.4+5+(.(.(.(.(.(.(.(.(.6+.+v.P u.;.{+7+8+    ",
"  t.1+;.p.>.%+&+~+*+9+0+(.(.(.(.a+b+(.(.(.6+.+v.L.u.c+d+$+8+    ",
"  _+7.p.P %+&+P.-.e+f+(.(.(.(.(.g+h+(.(.(.i+~+.+v.L.u.p.{+j+    ",
"  k+>.L.w &+P.~+t.l+(.(.(.(.(.(.m+n+(.(.(.o+-.~+.+v.%+P {+3+    ",
"  p+&+.+~+-.*+_+* q+(.(.r+'+r+s+t+u+v+w+(.x+y+z+*+-..+&+M.A+    ",
"  (+*+*+t._+* B+& C+(.(.D+z E+F+G+H+I+J+(.D.K+L+=+_+*+*+&.M+    ",
"    t.k+(+(+p+p+N+O+(.(.P+Q+R+S+T+@ T+G.(.(.U+V+= (+& k+W+X+    ",
"    P.(+T+T+@ Y+Z+`+(.(. @.@+@@@% % % #@(.X.$@Y+@ T+T+_+%@      ",
"      ~++ #+&@&@*@=@-@D.h.;@# # # # >@,@'@)@&@&@#+#+h !@        ",
"      $+@ ~@~@~@{@{@]@^@/@(@{@{@{@{@_@:@<@[@{@~@~@~@p.}@        ",
"        $+Y+|@1@|@1@1@2@3@4@1@1@1@5@6@7@1@1@1@1@=.(+8@          ",
"          $+$ 9@0@0@9@9@a@b@9@9@9@9@9@9@0@0@0@0@c@d@            ",
"            ^+B+9@O.O.O.O.O.O.O.O.O.O.O.O.O.|@*+e@              ",
"              f@;.$ . . . . . . . . . . . g@h@A+                ",
"                  i@2+.+&@j@k@l@9@j@Y+&+N m@                    ",
"                      n@o@p@q@6.r@N.i@s@X+                      ",
"                                                                ",
"                                                                "};
