/* XPM */
static char *kcpuload[] = {
/* columns rows colors chars-per-pixel */
"32 32 87 1",
"  c black",
". c #001A00",
"X c #001E00",
"o c #002200",
"O c #002400",
"+ c #002600",
"@ c #002700",
"# c #002A00",
"$ c #002D00",
"% c #002E00",
"& c #003300",
"* c #003400",
"= c #003600",
"- c #003900",
"; c #003C00",
": c #003F00",
"> c #004100",
", c #004400",
"< c #004500",
"1 c #004800",
"2 c #004B00",
"3 c #004C00",
"4 c #004E00",
"5 c #005400",
"6 c #005500",
"7 c #005A00",
"8 c #005B00",
"9 c #005C00",
"0 c #005F00",
"q c #006600",
"w c #006800",
"e c #006900",
"r c #006C00",
"t c #007200",
"y c #007300",
"u c #007500",
"i c #007700",
"p c #007800",
"a c #007E00",
"s c #4C4C4C",
"d c gray47",
"f c #008200",
"g c #008500",
"h c #008700",
"j c #008800",
"k c #008A00",
"l c #008F00",
"z c #009000",
"x c #009300",
"c c #009600",
"v c #009800",
"b c #009900",
"n c #009C00",
"m c #00A100",
"M c #00A200",
"N c #00A500",
"B c #00A800",
"V c #00A900",
"C c #00AA00",
"Z c #00AB00",
"A c #00B400",
"S c #00B600",
"D c #00B800",
"F c #00BB00",
"G c #00BD00",
"H c #00BE00",
"J c #00C300",
"K c #00C600",
"L c #00CC00",
"P c #00CF00",
"I c #00D000",
"U c #00D100",
"Y c #00D200",
"T c #00D800",
"R c #00DD00",
"E c #00E100",
"W c #00E400",
"Q c #00E600",
"! c #00E700",
"~ c #00EA00",
"^ c #00EE00",
"/ c #00F000",
"( c #00F700",
") c #00FC00",
"_ c #00FD00",
"` c green",
"' c gray100",
/* pixels */
"ssssssssssssssssssssssssssssssss",
"s                              '",
"s                              '",
"s                              '",
"s                              '",
"s                              '",
"s                              '",
"s                              '",
"s     (                        '",
"s     ~                        '",
"s   ddRdd`d`dddddddddddddddd   '",
"s     P  / /  //               '",
"s   ` J `E E  WE               '",
"s   ^ A`/P P  PP               '",
"s   R V~RJ J( JJ        (      '",
"s   LdnTLA`AW`AA```dd(`dW`(`   '",
"s   D`xJHN~NP~NNW~~``W~`P~~~   '",
"s   VWfAVvPxJYxxPPPW~PPWJPPP   '",
"s   vPimvgHgVHgkHHHPLHHLVHHH   '",
"s   kDqxkpVivVpiNVVDDVVDvVNV   '",
"s   im8aiexegxeexxxmmxxmgxxx   '",
"s   qk4rq8a8ya88aaakkaakyaaa   '",
"s   5y,852e29e22eeeyyeey9eee   '",
"s   <8&<,:5-25:-555995594555   '",
"s   &<+=&%:%-:%%:::<<::<-:::   '",
"s   o%.+oX#X+#XX###%%##%+###   '",
"s                              '",
"s                              '",
"s                              '",
"s                              '",
"s                              '",
"s'''''''''''''''''''''''''''''''"
};
