/* XPM */
static char *krecipes[] = {
/* columns rows colors chars-per-pixel */
"32 32 189 2",
"   c #000000",
".  c #0A0A17",
"X  c #383857",
"o  c #242373",
"O  c #4C4C4C",
"+  c #555555",
"@  c blue",
"#  c #6A37BF",
"$  c #4040A3",
"%  c #656596",
"&  c #4B4ACD",
"*  c #4E45FF",
"=  c #4C49FE",
"-  c #5F52E4",
";  c #5454FF",
":  c #5D5DFF",
">  c #6E5ACE",
",  c #6363DF",
"<  c #6760EF",
"1  c #6666FF",
"2  c #6A6AFF",
"3  c #726DF4",
"4  c #7474FE",
"5  c #7A7AFF",
"6  c #800000",
"7  c #9D0000",
"8  c #9A133A",
"9  c #AA0000",
"0  c #B20000",
"q  c #BD0101",
"w  c #BB0F0D",
"e  c #B41F1F",
"r  c #B81717",
"t  c #A91B4F",
"y  c #A96A6A",
"u  c #A6747F",
"i  c #BA7E62",
"p  c #C30000",
"a  c #C90202",
"s  c #D21A1A",
"d  c #CC2C2C",
"f  c #D62626",
"g  c #D13838",
"h  c red",
"j  c #E02A2A",
"k  c #E16A24",
"l  c #C24848",
"z  c #CC4242",
"x  c #C75150",
"c  c #D64545",
"v  c #D85151",
"b  c #DD5C5C",
"n  c #C36160",
"m  c #C27371",
"M  c #D96161",
"N  c #DB7272",
"B  c #E04242",
"V  c #EA555F",
"C  c #EC6565",
"Z  c #892D89",
"A  c #916A9C",
"S  c #B54C84",
"D  c #867EED",
"F  c #DC8225",
"G  c #DF8F2E",
"H  c #DE9134",
"J  c #ED961A",
"K  c #FE9E00",
"L  c #E99420",
"P  c #FEA005",
"I  c #FAA71E",
"U  c #D4914E",
"Y  c #D89449",
"T  c #CD966B",
"R  c #D8A778",
"E  c #E88572",
"W  c #F6B343",
"Q  c #F9B545",
"!  c #FFC25C",
"~  c #F5C16C",
"^  c #FFC564",
"/  c #F5C473",
"(  c #818181",
")  c #AB8BA7",
"_  c gray64",
"`  c #AEACAB",
"'  c #B1B1AE",
"]  c #B4B3B1",
"[  c #B8B7B4",
"{  c #BDBCBA",
"}  c #9C86C3",
"|  c #9483D6",
" . c #9696DB",
".. c #9C9CD9",
"X. c #8484FE",
"o. c #8B8BFE",
"O. c #9489E6",
"+. c #9D9DE2",
"@. c #9393F5",
"#. c #9392FD",
"$. c #9C9CFD",
"%. c #A09FF8",
"&. c #A3A3D9",
"*. c #AAAADB",
"=. c #B2B2DA",
"-. c #A7A7E0",
";. c #AFAFE6",
":. c #ACACE8",
">. c #A4A3F6",
",. c #A3A3FD",
"<. c #ABAAF4",
"1. c #ABABFE",
"2. c #B5ABE4",
"3. c #B5B5E4",
"4. c #B6B6EF",
"5. c #B9B9E3",
"6. c #BCBCED",
"7. c #B2B1F3",
"8. c #B3B3FE",
"9. c #BDBCF4",
"0. c #BBBBFD",
"q. c #C48483",
"w. c #C49481",
"e. c #C59492",
"r. c #DE8484",
"t. c #C5A3A1",
"y. c #C9B2AF",
"u. c #C0BFBD",
"i. c #DBBFBF",
"p. c #E99D8D",
"a. c #E19898",
"s. c #F78D8D",
"d. c #FF8282",
"f. c #E59BAB",
"g. c #E7A5A4",
"h. c #E2A8A8",
"j. c #E8BBBA",
"k. c #F4ADAA",
"l. c #FCB5B5",
"z. c #C1C0BE",
"x. c #EFC28E",
"c. c #E5C5B4",
"v. c #F6D6A2",
"b. c #C5C4C3",
"n. c #C8C6C5",
"m. c #C9C8C6",
"M. c #CDCBCA",
"N. c #D0CECD",
"B. c #D1D0CD",
"V. c #DED0CF",
"C. c #D5D3D2",
"Z. c #DAD5D3",
"A. c #DAD8D6",
"S. c #DDDCDB",
"D. c #C0C0F4",
"F. c #C1C1FC",
"G. c #CCCBF4",
"H. c #D7D7F7",
"J. c #D4D4FD",
"K. c #DBDBF7",
"L. c #DEDDF8",
"P. c #E1CFCE",
"I. c #E8C6C5",
"U. c #EDCACA",
"Y. c #E2DDDC",
"T. c #EAD1D0",
"R. c #FDC6C6",
"E. c #F5D3D3",
"W. c #F0DADA",
"Q. c #FBD6D8",
"!. c #FADEDD",
"~. c #E1E0DE",
"^. c #FAE8CE",
"/. c #FAEBD3",
"(. c #E3E3E2",
"). c #E8E7E6",
"_. c #E8E8E7",
"`. c #ECEBEA",
"'. c #E4E4FF",
"]. c #EBEBFD",
"[. c #F2E7E7",
"{. c #F1EEEE",
"}. c #FBE4E4",
"|. c #FFEBEB",
" X c #F0F0EF",
".X c #F3F3F2",
"XX c #FBF5F5",
"oX c #FEFDFD",
"OX c None",
/* pixels */
"OXOXOXOXOXOXOXOXOXOXOXOXOXOXOXOXOXOXOXOXOXOXOXOXOXOXOXOXOXOXOXOX",
"OXOXOXOXOXOXOXOXOXOXOXOXOXOXOXOX' y p OXOXOXOXOXOXOXOXOXOXOXOXOX",
"OXOXOXOXOXOXOXOXOXOXOXOXOXOX+ z.M.Z.z p OXOXOXOXOXOXOXOXOXOXOXOX",
"OXOXOXOXOXOXOXOXOXOXOXOXOX( C.C.S.n.C.x a OXOXOXOXOXOXOXOXOXOXOX",
"OXOXOXOXOXOXOXOXOXOXOXOX_ S.C.S.B.).m.B.n p OXOXOXOXOXOXOXOXOXOX",
"OXOXOXOXOXOXOXOXOXOXOX{ _.S.).(.n.Y.~.m.n.m q OXOXOXOXOXOXOXOXOX",
"OXOXOXOXOXOXOXOXOX( C. X`._.S.(.Y.z.S.A.[ Z.q.w h OXOXOXOXOXOXOX",
"OXOXOXOXO _ n.n.m.S..X.X X`.(.(.z.(.M.m.u.u.M.e.r q OXOXOXOXOXOX",
"OX  { M.S.(.S.S.(.(.`..X.X X_.S.~.' Y.[ N.' m.u.t.e 9 OXOXOXOXOX",
"OXp m.XX).).S.(.(.(.~..X.X.X`.`.A.Y.' Z.` N.` N.u.y.l 9 OXOXOXOX",
"OX0 d W.`.).(.(.(.S.(..X.X X.X_._.u.B.[ m.[ n.] A.W.|.f 9 OXOXOX",
"OXOXq g `. XS.(.(.). X)..X X X X`.A.z.u.z.u.u.Z.}.oXl.s OXOXOXOX",
"OXOXOXp c {._..X.X.X.X].A. X X X X`.b.C.] M.P.XXoXs.a OXOXOXOXOX",
"OXOXOXOXp v .X).(.(.S.N.S.S.S.`. X`._.{ S.P.oXXXC q OXOXOXOXOXOX",
"OXOXOXOXOXa b .X_.(.(.(.S.S.S.S.`.{._.Y.T.oX}.B 0 OXOXOXOXOXOXOX",
"OXOXOXOXOXOXa N .X(.S.(.S.S.S.S.(.{.Y.j.oXR.f 6 OXOXOXOXOXOXOXOX",
"OXOXOXOXOXOX  p r..XY.). X`.V.U.!.oXoXd.V Z = * OXOXOXOXOXOXOXOX",
"OXOXOXOXOX      8 a. XI.E.oXoXoXoXQ.f.S # = = = = OXOXOXOXOXOXOX",
"OXOXOXOXOX    o = t h.oXoX!.k.E k F R i u A > = = ; OXOXOXOXOXOX",
"OXOXOXOXOX    & = c.b g.p.x.~ W P ^ Q K K K K G - $       OXOXOX",
"OXOXOXOXOXOXOX1 < ^./.v./ W I K K ! K K K K K K } .       OXOXOX",
"OXOXOXOXOXOXOX2 $.3 ) T Y L K K K K K J H U w.2.X       OXOXOXOX",
"OXOXOXOXOXOXOX2 ].J.4 2 4 4 5 O.| O.#.$.,.1.1.8.% < OXOXOXOXOXOX",
"OXOXOXOXOXOXOX2 '.oX].X.4 5 X.X.o.#.$.,.,.1.8.7. .4 OXOXOXOXOXOX",
"OXOXOXOXOXOXOX2 '.oX].H.>.X.X.o.#.$.$.1.1.8.8.-...4 OXOXOXOXOXOX",
"OXOXOXOXOXOXOX1 '..XH.G.9.7.$.$.$.$.1.1.8.8.:.*...5 OXOXOXOXOXOX",
"OXOXOXOXOXOXOX2 H.L.G.9.7.>.>.$.$.,.1.1.8.7.;.*.&.4 OXOXOXOXOXOX",
"OXOXOXOXOXOXOX2 F.G.9.7.>.>.$.$.$.1.1.8.9.4.3.=.*.5 OXOXOXOXOXOX",
"OXOXOXOXOXOXOX2 #.D.7.<.>.$.$.,.1.1.0.0.0.6.5.=.+.4 OXOXOXOXOXOX",
"OXOXOXOXOXOXOX1 2 X.>.>.$.$.,.,.1.8.0.F.F.6.5.+.5 : OXOXOXOXOXOX",
"OXOXOXOXOXOXOXOX: 2 4 5 o.$.1.1.1.0.0.F.<.@.4 4 ; OXOXOXOXOXOXOX",
"OXOXOXOXOXOXOXOXOXOX@ 1 2 4 5 5 5 5 5 5 4 1 X.OXOXOXOXOXOXOXOXOX"
};
