/* XPM */
static char *knights[] = {
/* columns rows colors chars-per-pixel */
"32 32 145 2",
"   c #9C5D2E",
".  c #9F602F",
"X  c #9D6135",
"o  c #A4622E",
"O  c #AA642C",
"+  c #AC692D",
"@  c #A36434",
"#  c #A56936",
"$  c #A56B3D",
"%  c #AA6634",
"&  c #AC6934",
"*  c #AB6D3B",
"=  c #B2672A",
"-  c #B4692D",
";  c #BA6B2E",
":  c #B16631",
">  c #B36B32",
",  c #B96D30",
"<  c #BC702D",
"1  c #B67032",
"2  c #B3723B",
"3  c #BB7231",
"4  c #BA753E",
"5  c #BC783A",
"6  c #8F755E",
"7  c #9D6B42",
"8  c #906E54",
"9  c #9E7858",
"0  c #997F6C",
"q  c #A16C43",
"w  c #AA6E44",
"e  c #A4714B",
"r  c #AD7145",
"t  c #A97449",
"y  c #A57C5C",
"u  c #AA7752",
"i  c #A87C5D",
"p  c #B37343",
"a  c #B57A47",
"s  c #B37A4A",
"d  c #B87542",
"f  c #BA7942",
"g  c #B97C4C",
"h  c #B67F51",
"j  c #A77F62",
"k  c #C06F2C",
"l  c #C3732E",
"z  c #C6782F",
"x  c #CC772B",
"c  c #CA792E",
"v  c #C17530",
"b  c #C0753C",
"n  c #C37830",
"m  c #C37A3D",
"M  c #CB7C30",
"N  c #CB7F3D",
"B  c #D07D2D",
"V  c #C37D40",
"C  c #8C827A",
"Z  c #9F856C",
"A  c #9A8271",
"S  c #9A8779",
"D  c #9F8A76",
"F  c #A9805A",
"G  c #BF814B",
"H  c #B6845B",
"J  c #BB875F",
"K  c #BB885D",
"L  c #A08164",
"P  c #A2856D",
"I  c #A4907E",
"U  c #BE8D64",
"Y  c #BD906B",
"T  c #CB823E",
"R  c #D3863D",
"E  c #C08555",
"W  c #C28B5D",
"Q  c #C08E63",
"!  c #C79263",
"~  c #CA9664",
"^  c #CEA176",
"/  c #8E8782",
"(  c #8C8986",
")  c #9E9D9B",
"_  c #AE9B8A",
"`  c #A69F99",
"'  c #BA9D87",
"]  c #A4A19E",
"[  c #ADA095",
"{  c #ABA198",
"}  c #B5A89C",
"|  c #A0A0A0",
" . c #ACA7A2",
".. c #ADA9A6",
"X. c gray66",
"o. c #B5B0AC",
"O. c #BDB3AB",
"+. c #B2B2B2",
"@. c #BDB7B3",
"#. c #BBB8B6",
"$. c #BABAB9",
"%. c #C3A084",
"&. c #CAA383",
"*. c #CAAF9A",
"=. c #CAB09B",
"-. c #D4B59B",
";. c #C6B1A1",
":. c #CCBAAE",
">. c #C3BAB3",
",. c #C0BEBD",
"<. c #CFBEB1",
"1. c #D0B5A0",
"2. c #D5B8A3",
"3. c #D5BCA9",
"4. c #D8BAA1",
"5. c #DDBFA8",
"6. c #DCC2AC",
"7. c #D2C0B2",
"8. c #D2C5BB",
"9. c #D9C3B2",
"0. c #E2C4AB",
"q. c #E0C8B8",
"w. c #C2C2C2",
"e. c #CBC7C3",
"r. c #CDCDCD",
"t. c #D5CDC6",
"y. c #D9CDC3",
"u. c #D5D1CE",
"i. c #D4D4D4",
"p. c #D8D4D1",
"a. c #DFDBD7",
"s. c #DADADA",
"d. c #E5D5C9",
"f. c #E9DBCF",
"g. c #E2DAD4",
"h. c #E1DDD9",
"j. c #E8DCD3",
"k. c #E8E0DA",
"l. c #E4E4E4",
"z. c gray92",
"x. c #F3EFEA",
"c. c #F6F2EF",
"v. c #F4F4F4",
"b. c #F8F7F6",
"n. c #FDFDFD",
/* pixels */
"w 2 p p r r e r p p p p w w a d a p p p p p w r r p p p p w p g ",
". & : : > > : : > > % # & > : & & & : : > > : : : > : & # & & p ",
"O : ; ; & & & : > > > 1 ; ; , d , : > ; - & % % : : > > ; ; , V ",
"= ; ; : % @ $ : 1 1 1 & @ % W 4.b k ; ; % % @ # > 3 1 2 % @ l R ",
"+ > ; , % % % > , > > g 3.k.n.n.v.8.d , > % # & 1 > > > : 1 > f ",
"X > > & X X @ # > - 4 1.n.n.n.n.n.n.&., @ X X @ & > > > > > 1 f ",
"O - > > 1 > > , K *.d.n.n.n.n.n.n.n.x.%.; > > 1 1 1 > , 3 v 5 V ",
"O 1 3 z 3 1 5 J f.b.n.n.n.n.n.n.n.n.n.g.1 3 5 3 v 3 3 3 c c M T ",
"< c c c c c g y.n.n.n.n.n.n.b.n.n.n.n.n.^ c z 5 v l v v z c z T ",
"+ z c c z v f 7.n.n.z.z.c.h.=.h.n.n.n.n.-.m , > 1 3 3 1 1 3 1 f ",
"# 1 1 1 1 1 > > Y H % # # : a y.n.n.n.n.6.5 > > > > & # # # > f ",
"+ < < < 1 ; , , ; & # @ & > h g.n.n.n.n.j.E , , > > & # % & 1 f ",
"o 1 , & & & > > > % @ @ % , 4.b.n.n.n.n.v.;.: > , : $ @ @ : l b ",
"= x l % @ & , 3 > > % % : J v.n.n.n.n.n.b.<.> 1 , > & & % : : V ",
". + > ; ; ; & > & : > > J j.n.n.n.n.n.n.v.3.> : > > : : : : : d ",
"o & & & & % % % # & % # *.b.n.n.n.n.n.n.v.t.# # % % % % & & : d ",
"@ : % @ @ @ % & % % @ % 9.n.n.n.n.n.n.n.c.l.e @ & & % % % @ % p ",
"X : : % @ % @ # % # % # q.n.n.n.n.n.n.n.c.l.j @ % % # # % % % d ",
". % ; : > > > - ; : - > p.n.n.n.n.n.b.v.z.i.t ; : : : > : : 2 p ",
"= : ; , : : > > ; ; > & ' :.0.0.0.5.2.1.1.' : % ; , , > : : , m ",
"O , , ; % @ @ & 1 > 1 > 7 P } #.w.w.w.@._ Z @ @ > > > 1 * # l T ",
"= , ; ; % # % & , , > > 1 q ] ,.i.i.r.$.S 7 $ % 1 1 1 > , > , f ",
"@ * : % @ X # & & & > , 2 I s.v.n.n.n.b.w.A @ # & > > > 1 < , f ",
"o % > > 1 & 1 1 1 > > 1 F +.z.b.n.n.n.b.i...* > 1 1 & 1 3 < < E ",
"- z x x < < < T 3 z v 5 { r.v.n.n.n.n.n.l.r.D 5 3 z 3 z c R R R ",
"- x R R T x < < l v 4 Z $.i.z.v.n.n.b.b.l.i...L 3 3 M 3 3 c x c ",
"+ 1 3 3 < 1 = - 1 2 9 | i.l.b.b.b.b.b.b.v.l.w.) * 1 1 & > 1 & f ",
"o 1 < 1 1 1 1 + > % 8 ( X.+.#.$.$.$.$.$.+.+.| / $ & # X X # & f ",
"+ ; > , 1 - 1 - , & C { >.e.p.g.s.s.k.a.u.e.O.[ 6 % & % % - 1 m ",
"+ l l > & 1 > 1 > : 7 e u i J U ! ! ~ U i y s a 2 > # @ % % > m ",
"= ; ; + + & > 1 % - = % % - - ; ; ; l > % % > > > > : % % : > d ",
"  o @ O o o o o o o o % O O o . o   @ o o o o o o o o O O O O * "
};
