/* XPM */
static char * kaffeine_xpm[] = {
"32 32 428 2",
"  	c None",
". 	c #030100",
"+ 	c #1B0D00",
"@ 	c #2A1300",
"# 	c #361900",
"$ 	c #472000",
"% 	c #3D1C00",
"& 	c #291300",
"* 	c #1A0C00",
"= 	c #000000",
"- 	c #110800",
"; 	c #502500",
"> 	c #924300",
", 	c #9E4900",
"' 	c #753600",
") 	c #532600",
"! 	c #562800",
"~ 	c #652E00",
"{ 	c #662F00",
"] 	c #883F00",
"^ 	c #221000",
"/ 	c #0B0500",
"( 	c #351900",
"_ 	c #AE5000",
": 	c #D06100",
"< 	c #A84E00",
"[ 	c #5E2C00",
"} 	c #3C1C00",
"| 	c #6B3100",
"1 	c #803B00",
"2 	c #713400",
"3 	c #C65C00",
"4 	c #F57900",
"5 	c #F39000",
"6 	c #9A5900",
"7 	c #180B00",
"8 	c #522600",
"9 	c #BF5900",
"0 	c #E66A00",
"a 	c #B45300",
"b 	c #4A2200",
"c 	c #3A1A00",
"d 	c #482100",
"e 	c #612D00",
"f 	c #7B3900",
"g 	c #853D00",
"h 	c #DD6700",
"i 	c #FD8600",
"j 	c #FF9B00",
"k 	c #F78000",
"l 	c #944A00",
"m 	c #0C0500",
"n 	c #592900",
"o 	c #E46B00",
"p 	c #F67300",
"q 	c #A14B00",
"r 	c #401D00",
"s 	c #351800",
"t 	c #452000",
"u 	c #672F00",
"v 	c #783700",
"w 	c #894000",
"x 	c #683000",
"y 	c #C25A00",
"z 	c #EA7000",
"A 	c #FE8F00",
"B 	c #FF9600",
"C 	c #FD7B00",
"D 	c #F97F00",
"E 	c #4F2800",
"F 	c #3F1F00",
"G 	c #CF6100",
"H 	c #FC7800",
"I 	c #C55C00",
"J 	c #421F00",
"K 	c #462000",
"L 	c #5B2A00",
"M 	c #833D00",
"N 	c #8B4000",
"O 	c #763700",
"P 	c #D86400",
"Q 	c #F67A00",
"R 	c #FF9A00",
"S 	c #FE8800",
"T 	c #FD7D00",
"U 	c #FD8200",
"V 	c #A85D00",
"W 	c #0D0800",
"X 	c #1F0E00",
"Y 	c #D76500",
"Z 	c #FD8000",
"` 	c #C96000",
" .	c #4F2500",
"..	c #371900",
"+.	c #4C2300",
"@.	c #632E00",
"#.	c #833C00",
"$.	c #843D00",
"%.	c #9F4A00",
"&.	c #E56B00",
"*.	c #FB8500",
"=.	c #FD7E00",
"-.	c #FD8300",
";.	c #E37D00",
">.	c #392100",
",.	c #0A0500",
"'.	c #8C4100",
").	c #FB7F00",
"!.	c #F17800",
"~.	c #6B3200",
"{.	c #3B1B00",
"].	c #512500",
"^.	c #773700",
"/.	c #823C00",
"(.	c #914300",
"_.	c #9D4800",
":.	c #7B3800",
"<.	c #BD5700",
"[.	c #EF7500",
"}.	c #FE9300",
"|.	c #F68C00",
"1.	c #5C3300",
"2.	c #502600",
"3.	c #E97900",
"4.	c #F77F00",
"5.	c #9E4C00",
"6.	c #3E1D00",
"7.	c #582800",
"8.	c #6E3300",
"9.	c #7D3900",
"0.	c #873E00",
"a.	c #9F4900",
"b.	c #9C4800",
"c.	c #DA6600",
"d.	c #FD8100",
"e.	c #FF9C00",
"f.	c #FB7600",
"g.	c #FD7F00",
"h.	c #FD8500",
"i.	c #FE9000",
"j.	c #884F00",
"k.	c #BA5B00",
"l.	c #FC8700",
"m.	c #D56B00",
"n.	c #773600",
"o.	c #813B00",
"p.	c #954400",
"q.	c #A54C00",
"r.	c #7E3A00",
"s.	c #AD5000",
"t.	c #E16B00",
"u.	c #FE8D00",
"v.	c #F47500",
"w.	c #FC7900",
"x.	c #FE9400",
"y.	c #9A5A00",
"z.	c #532800",
"A.	c #F98300",
"B.	c #FA8800",
"C.	c #703300",
"D.	c #853E00",
"E.	c #8F4200",
"F.	c #9A4700",
"G.	c #A44C00",
"H.	c #A64D00",
"I.	c #7C3900",
"J.	c #D66300",
"K.	c #F57B00",
"L.	c #FF9900",
"M.	c #FB8800",
"N.	c #F17000",
"O.	c #FA7500",
"P.	c #FD7C00",
"Q.	c #AE6600",
"R.	c #140900",
"S.	c #A15200",
"T.	c #FE8A00",
"U.	c #E47400",
"V.	c #843C00",
"W.	c #964500",
"X.	c #A04900",
"Y.	c #A34B00",
"Z.	c #A64C00",
"`.	c #AC4F00",
" +	c #B15100",
".+	c #DF6700",
"++	c #FB8100",
"@+	c #F37B00",
"#+	c #EF6F00",
"$+	c #F87400",
"%+	c #A36000",
"&+	c #3B1E00",
"*+	c #E47900",
"=+	c #F78900",
"-+	c #BC5A00",
";+	c #B55400",
">+	c #B35300",
",+	c #B25200",
"'+	c #B45200",
")+	c #B55300",
"!+	c #E66E00",
"~+	c #F99000",
"{+	c #E56D00",
"]+	c #ED6E00",
"^+	c #F77300",
"/+	c #FD7A00",
"(+	c #FE8E00",
"_+	c #925500",
":+	c #643200",
"<+	c #F88A00",
"[+	c #E77800",
"}+	c #A94F00",
"|+	c #BC5700",
"1+	c #BE5800",
"2+	c #B85500",
"3+	c #7A3800",
"4+	c #C45B00",
"5+	c #F87B00",
"6+	c #EF7C00",
"7+	c #DB6600",
"8+	c #E86C00",
"9+	c #FC7700",
"0+	c #804900",
"a+	c #C86800",
"b+	c #FC8F00",
"c+	c #BF5F00",
"d+	c #7D3A00",
"e+	c #A44B00",
"f+	c #B65400",
"g+	c #BF5800",
"h+	c #C05900",
"i+	c #8D4100",
"j+	c #A04A00",
"k+	c #D66400",
"l+	c #DA6500",
"m+	c #E36A00",
"n+	c #F97500",
"o+	c #F38300",
"p+	c #543000",
"q+	c #E67A00",
"r+	c #FE9100",
"s+	c #954600",
"t+	c #693000",
"u+	c #934300",
"v+	c #783800",
"w+	c #E76F00",
"x+	c #FE9800",
"y+	c #F38800",
"z+	c #CE6000",
"A+	c #D16200",
"B+	c #DF6800",
"C+	c #F06F00",
"D+	c #FA7600",
"E+	c #E57A00",
"F+	c #3C2200",
"G+	c #020100",
"H+	c #F18300",
"I+	c #FB8700",
"J+	c #5A2900",
"K+	c #5A2A00",
"L+	c #934400",
"M+	c #A74D00",
"N+	c #B05100",
"O+	c #893F00",
"P+	c #C85D00",
"Q+	c #F47E00",
"R+	c #FD9A00",
"S+	c #DB6E00",
"T+	c #C75C00",
"U+	c #CD5F00",
"V+	c #D36200",
"W+	c #E16900",
"X+	c #F17100",
"Y+	c #C46400",
"Z+	c #1B1000",
"`+	c #1D0D00",
" @	c #F88B00",
".@	c #EC7C00",
"+@	c #3F1D00",
"@@	c #763600",
"#@	c #873F00",
"$@	c #954500",
"%@	c #9C4900",
"&@	c #AB4F00",
"*@	c #DB6900",
"=@	c #FD8F00",
"-@	c #F58E00",
";@	c #BB5700",
">@	c #C15A00",
",@	c #C95D00",
"'@	c #D16100",
")@	c #994700",
"!@	c #070300",
"~@	c #582900",
"{@	c #FA8D00",
"]@	c #D46C00",
"^@	c #2E1500",
"/@	c #442000",
"(@	c #652F00",
"_@	c #743500",
":@	c #E47200",
"<@	c #C55B00",
"[@	c #421E00",
"}@	c #FA8B00",
"|@	c #B85D00",
"1@	c #2C1400",
"2@	c #6F3300",
"3@	c #7F3A00",
"4@	c #8A4000",
"5@	c #974600",
"6@	c #8E4200",
"7@	c #CA5E00",
"8@	c #FE9700",
"9@	c #D16300",
"0@	c #C35A00",
"a@	c #B15200",
"b@	c #080400",
"c@	c #5F2C00",
"d@	c #F98900",
"e@	c #A85400",
"f@	c #4D2300",
"g@	c #602C00",
"h@	c #E56C00",
"i@	c #FF9700",
"j@	c #F38500",
"k@	c #CC5E00",
"l@	c #D06200",
"m@	c #D46300",
"n@	c #D96600",
"o@	c #683100",
"p@	c #2D1500",
"q@	c #F88400",
"r@	c #A14F00",
"s@	c #7F3B00",
"t@	c #753500",
"u@	c #F27800",
"v@	c #E17300",
"w@	c #CF6000",
"x@	c #DE6800",
"y@	c #CF6500",
"z@	c #2A1600",
"A@	c #050200",
"B@	c #F18100",
"C@	c #A15100",
"D@	c #622D00",
"E@	c #FD8C00",
"F@	c #F78F00",
"G@	c #D06300",
"H@	c #D76400",
"I@	c #E46A00",
"J@	c #EB6D00",
"K@	c #FA7A00",
"L@	c #643600",
"M@	c #D86E00",
"N@	c #B05800",
"O@	c #4E2400",
"P@	c #723400",
"Q@	c #5D2B00",
"R@	c #AF5100",
"S@	c #EE7300",
"T@	c #EB7A00",
"U@	c #E36900",
"V@	c #D06D00",
"W@	c #904800",
"X@	c #C96200",
"Y@	c #331700",
"Z@	c #451F00",
"`@	c #FD8800",
" #	c #FE9500",
".#	c #D96900",
"+#	c #D26200",
"@#	c #E26900",
"##	c #DF7900",
"$#	c #412500",
"%#	c #442100",
"&#	c #301600",
"*#	c #441F00",
"=#	c #AC5000",
"-#	c #FE8C00",
";#	c #F98700",
">#	c #F67200",
",#	c #794600",
"'#	c #080500",
")#	c #120800",
"!#	c #A24D00",
"~#	c #662E00",
"{#	c #411E00",
"]#	c #4F2400",
"^#	c #6D3200",
"/#	c #F17900",
"(#	c #E77300",
"_#	c #F68000",
":#	c #9C5900",
"<#	c #311700",
"[#	c #904300",
"}#	c #2F1600",
"|#	c #FB8600",
"1#	c #FA8C00",
"2#	c #D86700",
"3#	c #EE6F00",
"4#	c #A85A00",
"5#	c #1E1100",
"6#	c #361800",
"7#	c #EB7600",
"8#	c #EE7700",
"9#	c #D36300",
"0#	c #E96D00",
"a#	c #F87500",
"b#	c #F37800",
"c#	c #9F5300",
"d#	c #090500",
"e#	c #2D1400",
"f#	c #3C1B00",
"g#	c #793800",
"h#	c #DF6A00",
"i#	c #F27000",
"j#	c #F07100",
"k#	c #723700",
"l#	c #140A00",
"m#	c #1B0C00",
"n#	c #231000",
"o#	c #522D00",
"p#	c #DD7E00",
"q#	c #CC5F00",
"r#	c #8B4100",
"s#	c #2A1400",
"t#	c #3F2300",
"u#	c #6A3400",
"                          . + @ # $ % & + * = = = =             ",
"                        - ; > , ' ) ! ~ { ] { ^ = = = =         ",
"                    / ( _ : < [ } ; | 1 2 3 4 5 6 7 = = =       ",
"                    8 9 0 a b c d e f 1 g h i j k l = = = =     ",
"                m n o p q r s t u v w x y z A B C D E = = = =   ",
"                F G H I J # K L 2 M N O P Q R S T U V W = = =   ",
"              X Y Z `  ...+.@.2 #.> $.%.&.*.j Z =.-.;.>.= = =   ",
"            ,.'.).!.~.{.].@.^./.(._.:.<.[.}.}.H =.-.|.1.= = =   ",
"            2.3.4.5.6.7.8.9.0.> a.b.$.c.d.e.Z f.g.h.i.j.= = = = ",
"          = k.l.m.[ e n.o.'.p._.q.r.s.t.u.j v.w.g.h.x.y.= = = = ",
"          z.A.B.'.C.D.E.F.b.G.H.G.I.J.K.L.M.N.O.P.-.}.Q.= = = = ",
"        R.S.T.U.V.W._.X.Y.Z.`. +W.E..+++e.@+#+$+C d.A %+= = = = ",
"        &+*+=+-+;+>+a ,+,+,+'+)+1 >+!+}.~+{+]+^+/+Z (+_+= = = = ",
"      = :+<+[+}+|+1+9 1+)+2+2+a 3+4+5+j 6+7+8+N.9+Z (+0+= = = = ",
"      = a+b+c+d+e+a f+g+h+1+h+i+j+k+A j l+J.m+8+n+/+o+p+= = = = ",
"      = q+r+s+t+u+e+_ )+2+<.f+v+<.w+x+y+z+A+k+B+C+D+E+F+= = = = ",
"      G+H+I+J+K+1 L+, M+N+)+F.O+P+Q+R+S+y T+U+V+W+X+Y+Z+= = =   ",
"      `+ @.@+@].@@#@$@%@H.&@r._.*@=@-@` ;@h+>@,@'@&.)@!@= = =   ",
"      ~@{@]@^@/@(@_@] L+, , 2 ;+K.R :@<.<.<.2+|+<@U+[@= = = =   ",
"      ~.}@|@1@{.J+2@3@4@5@f 6@7@S 8@9@h+y y 0@9 9 a@b@= = = =   ",
"      c@d@e@1@s f@c@@@$.] g@;+h@i@j@0@,@k@G l@m@n@o@= = = = =   ",
"      p@q@r@1@^@t K+C.s@_@t@,@u@i@v@,@w@'@c.x@8+y@z@= = = =     ",
"      A@B@C@1@1@% ; x ^.D@L+n@E@F@G@z+H@I@J@p K@L@= = = = =     ",
"      = M@N@1@1@..O@D@P@Q@R@S@}.T@U+V+U@#+^+C V@W = = = =       ",
"      = W@X@1@1@Y@Z@c@7./.7@`@ #.#+#@#C+9+C ##$#= = = = =       ",
"      = %#n@Y@1@&#*#~@b =#B+-#;#w@7+J@>#T U ,#'#= = = =         ",
"      = )#!#~#1@&#{#]#^#4+/#i@(#V+m+p C _#:#= = = = =           ",
"        = <#[#Y@}#6.b i+k+|#1#2#l+3#/+Z 4#5#= = = = =           ",
"        = = 6#K }#[@7.R@7#A 8#9#0#a#b#c#d#= = = = =             ",
"          = A@R.e#f#g#P+I+A h#n@i#j#k#l#= = = = =               ",
"            = = !@m#n#o#p#o+q#9 r#s#= = = = = =                 ",
"            = = = = = = t#u#+@1@b@= = = = = = =                 "};
