/* XPM */
static char * kthesaurus_xpm[] = {
"32 32 242 2",
"  	c None",
". 	c #5C5C5C",
"+ 	c #787877",
"@ 	c #747474",
"# 	c #737373",
"$ 	c #737372",
"% 	c #737272",
"& 	c #727272",
"* 	c #727271",
"= 	c #727171",
"- 	c #717171",
"; 	c #717070",
"> 	c #707070",
", 	c #70706F",
"' 	c #6E6E6E",
") 	c #585858",
"! 	c #5E5E5E",
"~ 	c #F7FBFF",
"{ 	c #EBF1FE",
"] 	c #EDF3FE",
"^ 	c #E9F0FD",
"/ 	c #ECF2FD",
"( 	c #E7EFFC",
"_ 	c #E8EFFC",
": 	c #EAF1FC",
"< 	c #E3ECFB",
"[ 	c #E1EBFB",
"} 	c #E0EAFA",
"| 	c #DFEAFA",
"1 	c #DEE9F9",
"2 	c #DDE8F9",
"3 	c #DCE7F8",
"4 	c #DBE7F8",
"5 	c #D9E6F8",
"6 	c #D8E5F7",
"7 	c #D7E4F7",
"8 	c #D6E3F6",
"9 	c #D5E3F6",
"0 	c #D3E2F5",
"a 	c #D3E1F5",
"b 	c #D1E0F4",
"c 	c #D0DFF4",
"d 	c #CEDEF3",
"e 	c #D0E0F5",
"f 	c #ECF0F5",
"g 	c #565656",
"h 	c #5E5E5D",
"i 	c #F0F5FF",
"j 	c #ACC6FA",
"k 	c #C8DAFA",
"l 	c #BCD1F8",
"m 	c #BFD3F8",
"n 	c #B6CDF6",
"o 	c #BAD0F5",
"p 	c #A2C0F1",
"q 	c #73A0E8",
"r 	c #6798E5",
"s 	c #6295E3",
"t 	c #5C90E0",
"u 	c #568DDF",
"v 	c #5189DC",
"w 	c #4C85DB",
"x 	c #4783DA",
"y 	c #407FD7",
"z 	c #3A7AD5",
"A 	c #3476D2",
"B 	c #2F72D1",
"C 	c #296ECE",
"D 	c #236BCB",
"E 	c #1E68CB",
"F 	c #1964C8",
"G 	c #125FC5",
"H 	c #0A5AC3",
"I 	c #0F60C8",
"J 	c #E6ECF3",
"K 	c #565655",
"L 	c #AAC4FA",
"M 	c #C7D8F9",
"N 	c #B0C9F6",
"O 	c #BBD1F7",
"P 	c #ACC7F4",
"Q 	c #B2CAF4",
"R 	c #A6C2F1",
"S 	c #729FE8",
"T 	c #6294E3",
"U 	c #5D90E0",
"V 	c #578DDF",
"W 	c #5289DC",
"X 	c #417FD7",
"Y 	c #3C7AD4",
"Z 	c #3576D1",
"` 	c #2F72D0",
" .	c #296ECD",
"..	c #246BCC",
"+.	c #1F68CB",
"@.	c #1360C5",
"#.	c #0B5AC3",
"$.	c #1060C8",
"%.	c #E7ECF3",
"&.	c #5E5D5D",
"*.	c #FBFDFF",
"=.	c #D5E4FE",
"-.	c #DDE9FF",
";.	c #D1E1FD",
">.	c #D8E5FD",
",.	c #CFE0FC",
"'.	c #CFDFFB",
").	c #D4E3FC",
"!.	c #C7D9F8",
"~.	c #C5D8F8",
"{.	c #C4D9F9",
"].	c #C2D7F7",
"^.	c #BDD3F5",
"/.	c #BAD1F3",
"(.	c #B8CFF2",
"_.	c #B7CFF2",
":.	c #B4CDF0",
"<.	c #AFC9ED",
"[.	c #A9C4E9",
"}.	c #A7C2E8",
"|.	c #A3C0E7",
"1.	c #A2BFE5",
"2.	c #9FBDE5",
"3.	c #9CBAE3",
"4.	c #99B7E1",
"5.	c #95B5DF",
"6.	c #9ABAE5",
"7.	c #F0F2F5",
"8.	c #565555",
"9.	c #5D5D5D",
"0.	c #FFFFFF",
"a.	c #FAF9F8",
"b.	c #E2E0DD",
"c.	c #E0DEDA",
"d.	c #E7E6E3",
"e.	c #E0DEDB",
"f.	c #E6E4E0",
"g.	c #DEDCD9",
"h.	c #F2F1EE",
"i.	c #F3F1ED",
"j.	c #DDDBD6",
"k.	c #E1DFDA",
"l.	c #EBE9E5",
"m.	c #E8E5E0",
"n.	c #DDDAD5",
"o.	c #D9D6D1",
"p.	c #DFDCD7",
"q.	c #E9E6E1",
"r.	c #FFFFFB",
"s.	c #FFFFFA",
"t.	c #FFFFF8",
"u.	c #FFFEF8",
"v.	c #FFFCF7",
"w.	c #FFFCF6",
"x.	c #FFFFF9",
"y.	c #F7F6F6",
"z.	c #555555",
"A.	c #ECECEC",
"B.	c #C2C2C2",
"C.	c #C8C8C8",
"D.	c #CECECE",
"E.	c #CDCDCD",
"F.	c #BABABA",
"G.	c #BCBCBC",
"H.	c #CCCCCC",
"I.	c #CBCBCB",
"J.	c #C3C3C3",
"K.	c #BFBFBF",
"L.	c #C4C4C4",
"M.	c #D3D3D3",
"N.	c #E7E7E7",
"O.	c #E4E4E4",
"P.	c #EDEDED",
"Q.	c #F9F9F9",
"R.	c #F7F7F7",
"S.	c #F6F6F6",
"T.	c #F5F5F5",
"U.	c #F4F4F4",
"V.	c #F3F3F3",
"W.	c #F2F2F2",
"X.	c #EFEFEF",
"Y.	c #F0F0F0",
"Z.	c #F1F1F1",
"`.	c #EEEEEE",
" +	c #FDFDFD",
".+	c #FBFBFB",
"++	c #F8F8F8",
"@+	c #EBEBEB",
"#+	c #E2E2E2",
"$+	c #E3E3E3",
"%+	c #EAEAEA",
"&+	c #E8E8E8",
"*+	c #E6E6E6",
"=+	c #E0E0E0",
"-+	c #E5E5E5",
";+	c #DDDDDD",
">+	c #DEDEDE",
",+	c #DCDCDC",
"'+	c #DBDBDB",
")+	c #DADADA",
"!+	c #D6D6D6",
"~+	c #D1D1D1",
"{+	c #D7D7D7",
"]+	c #D5D5D5",
"^+	c #D0D0D0",
"/+	c #D2D2D2",
"(+	c #D9D9D9",
"_+	c #D8D8D8",
":+	c #CFCFCF",
"<+	c #CACACA",
"[+	c #E1E1E1",
"}+	c #D4D4D4",
"|+	c #B1B1B1",
"1+	c #C6C6C6",
"2+	c #FAFAFA",
"3+	c #E9E9E9",
"4+	c #FEFEFE",
"5+	c #FCFCFC",
"6+	c #DFDFDF",
"7+	c #C0C0C0",
"8+	c #BDBDBD",
"9+	c #BBBBBB",
"0+	c #C7C7C7",
"a+	c #C1C1C1",
"b+	c #C9C9C9",
"c+	c #C5C5C5",
"d+	c #797979",
"e+	c #7C7C7C",
"f+	c #7D7D7D",
"g+	c #7A7A7A",
"h+	c #7B7B7B",
"i+	c #818181",
"j+	c #BEBEBE",
"k+	c #787878",
"l+	c #5A5A5A",
"m+	c #5B5B5B",
"n+	c #808080",
"o+	c #595959",
"p+	c #838383",
"q+	c #545454",
"r+	c #7E7E7E",
"s+	c #535353",
"  . + @ @ @ # # # # # # # $ % & & & * = = - - ; ; > > , - ' )   ",
"  ! ~ { ] ^ / ( _ : < [ } | 1 2 3 4 5 6 7 8 9 0 a b c d e f g   ",
"  h i j k l m n o p q r s t u v w x y z A B C D E F G H I J K   ",
"  h i L M N O P Q R S r T U V W w x X Y Z `  ...+.F @.#.$.%.K   ",
"  &.*.=.-.;.>.,.'.).!.~.{.].^./.(._.:.<.[.}.|.1.2.3.4.5.6.7.8.  ",
"  9.0.a.b.c.d.e.f.g.h.i.j.k.l.m.n.o.p.q.r.s.t.u.u.v.w.w.x.y.z.  ",
"  9.0.A.B.C.D.E.F.G.H.I.J.K.H.L.M.N.O.P.Q.R.S.S.T.U.V.W.V.T.z.  ",
"  9.0.Q.X.U.W.V.A.Y.Y.Y.Z.Y.`.P.V.0.0. +.+Q.Q.Q.++R.T.V.Z.T.z.  ",
"  9.0.Q.@+#+P.N.$+%+A.#+N.&+*+=+*+-+;+=+#+#+>+,+'+)+=+*+W.S.z.  ",
"  9.0.Y.!+~+)+>+M.{+'+]+{+E.^+/+;+(+D.~+E.{+_+/+I.:+H.<+A.S.z.  ",
"  9.0.`.E.]+~+;+>+,+~+/+!+,+:+~+[+}+]+]+!+;+M.~+}+I.K.|+A.S.z.  ",
"  9.0.X.'+_+/+/+'+)+M.{+D.=+{+D.}+:+)+^+D.:+E.E.!+-+-+[+W.S.z.  ",
"  9.0.P.M.(+!+@+{+)+=+_+!+~+:+~+]+^+/+^+1+~+D.,+L.I.C.D.V.S.z.  ",
"  . 0.W.!+(+/+=+^+,+)+}+'+!+/+]+^+M.,+~+E.E.I.{+$+#+=+#+T.S.z.  ",
"  . 0.0.2+R.V.R.T.R.T.V.V.Y.X.Y.`.Y.Z.P.%+@+3+3+V.W.V.W.S.S.z.  ",
"  . 0.U.[+[+3+#+3+,+[+.+4+5+ +.+.+2+2+2+S.S.S.T.V.U.U.V.R.S.z.  ",
"  . 0.%+]+;+>+[+E.M.6+{+$+'+,+=+=+>+_+D._+C.<+<+!+D.<+{+S.S.z.  ",
"  . 0.O.{+(+=+_+}+(+6+)+{+!+~+)+D.C.7+8+}+1+9+9+^+L.<+J.`.R.z.  ",
"  . 0.=+0+D.0+I.H.I.I.M.L.~+0+a+9+F.b+L.H.L.c+b+1+L.a+7+%+R.z.  ",
"  . 0.Z.%+X.@+`.`.P.A.A.@+X.A.%+%+@+`.P.X.A.`.P.%+&+P.A.R.R.z.  ",
"  . 0.&+D.<+^+:+~+:+0+E.b+%+2+R.R.++++R.R.R.R.R.++++R.R.5+S.z.  ",
"  . 0.V.`.@+P.A.@+P.P.X.%+U.T.Q.Q.S.R.++++++S.S.T.R.S.R. +R.z.  ",
"  . 0.*+1+c+1+1+~+~+J.a+B.{+L.C.M.<+L.(+}+d+e+f+d+g+d+h+i+d+z.  ",
"  . 0.$+L.I.~+B.I.<+^+j+J.C.~+a+7+J.b+C.K.k+Z.R.T.U.U. +%+l+    ",
"  . 0.-+B.1+E.I.I.K.:+^+G.I.M.L.a+0+<+}+1+g+R..+5+4+0.W.m+      ",
"  . 0.-+c+I.}+/+b+7+E.++V.U.T.U.W.V.U.++S.n+`.U.U.4+Y.m+        ",
"  . 0.R.X.`.Y.V.W.Y.U.2+.+.+.+.+.+.+.+2+ +n+3+X.S.3+l+          ",
"  . 0.3+0+1+I.)+D.}+2+.+2+2+2+2+2+2+2+2+5+n+O.W.#+l+            ",
"  . 0.5+++++++++S.Q..+.+.+.+.+.+.+.+.+.+ +n+&+/+o+              ",
"  . 0.0.0.0.0.0.0.0.0.0.0.0.0.0.0.0.0.0.0.p+G.q+                ",
"  l+r+h+h+h+h+h+h+h+h+h+h+h+h+h+h+h+h+h+e+> s+                  ",
"                                                                "};
