/* XPM */
static char * gwenview_xpm[] = {
"32 32 519 2",
"  	c None",
". 	c #2D2F32",
"+ 	c #3A3C3F",
"@ 	c #3C3F42",
"# 	c #333538",
"$ 	c #5F6164",
"% 	c #A0A2A4",
"& 	c #CCCDCF",
"* 	c #E3E4E5",
"= 	c #ECEDEE",
"- 	c #EEEFEF",
"; 	c #E8E9EA",
"> 	c #D7D8DA",
", 	c #B4B6B8",
"' 	c #7B7D80",
") 	c #383A3D",
"! 	c #6D7073",
"~ 	c #CBCDCF",
"{ 	c #F6F7F8",
"] 	c #FEFFFF",
"^ 	c #FEFEFE",
"/ 	c #FCFDFE",
"( 	c #FCFDFD",
"_ 	c #FDFEFE",
": 	c #E5E6E7",
"< 	c #9DA0A2",
"[ 	c #36383B",
"} 	c #323539",
"| 	c #ADB0B3",
"1 	c #F3F5F7",
"2 	c #FAFCFD",
"3 	c #F7F9FA",
"4 	c #F8FAFB",
"5 	c #D7DADC",
"6 	c #616468",
"7 	c #3E4145",
"8 	c #C6CACE",
"9 	c #F6F9FB",
"0 	c #F3F7F8",
"a 	c #F3F6F8",
"b 	c #F5F9FA",
"c 	c #E6EAEC",
"d 	c #74787C",
"e 	c #32363A",
"f 	c #C0C7CB",
"g 	c #F1F6F8",
"h 	c #EFF3F6",
"i 	c #F0F5F7",
"j 	c #E3E9EC",
"k 	c #676C71",
"l 	c #A2AAAF",
"m 	c #EBF2F6",
"n 	c #EDF3F6",
"o 	c #EEF4F7",
"p 	c #EFF5F7",
"q 	c #EFF4F7",
"r 	c #EEF4F6",
"s 	c #EDF2F5",
"t 	c #ECF1F4",
"u 	c #EBF0F3",
"v 	c #EBF0F4",
"w 	c #ECF0F4",
"x 	c #ECF1F5",
"y 	c #EDF2F6",
"z 	c #EEF3F7",
"A 	c #EFF4F8",
"B 	c #D1D9DD",
"C 	c #42474B",
"D 	c #686F73",
"E 	c #D5DFE3",
"F 	c #D1D8DB",
"G 	c #C2C7CB",
"H 	c #B1B5BA",
"I 	c #A1A6AC",
"J 	c #949AA0",
"K 	c #899298",
"L 	c #828D92",
"M 	c #7D8C8E",
"N 	c #798A8A",
"O 	c #778985",
"P 	c #778982",
"Q 	c #788A7F",
"R 	c #7A8B7E",
"S 	c #7F8E82",
"T 	c #869288",
"U 	c #8F9991",
"V 	c #9AA29D",
"W 	c #A7AEAC",
"X 	c #B6BCBD",
"Y 	c #C7CCCF",
"Z 	c #D4DCE1",
"` 	c #A0A8AE",
" .	c #110D12",
"..	c #665A69",
"+.	c #7E6B83",
"@.	c #7F6C87",
"#.	c #877993",
"$.	c #928AA3",
"%.	c #9E9DB2",
"&.	c #AAAFBF",
"*.	c #B5C0CA",
"=.	c #BECCD2",
"-.	c #C4D6D8",
";.	c #C8DCDA",
">.	c #CADED7",
",.	c #CBDFD3",
"'.	c #C9DECD",
").	c #C5DBC5",
"!.	c #C1D6BE",
"~.	c #BBCFB5",
"{.	c #B4C7A9",
"].	c #AABB9A",
"^.	c #9FAD8A",
"/.	c #939E79",
"(.	c #888F6B",
"_.	c #808465",
":.	c #787965",
"<.	c #2F2D26",
"[.	c #724051",
"}.	c #AF889E",
"|.	c #D8B3D1",
"1.	c #ECCEED",
"2.	c #F4E1FA",
"3.	c #F7ECFE",
"4.	c #F6F0FF",
"5.	c #F3F2FF",
"6.	c #F1F5FF",
"7.	c #EEF7FF",
"8.	c #ECFAFF",
"9.	c #E9FDFF",
"0.	c #E7FFFC",
"a.	c #E6FFF6",
"b.	c #E4FFF0",
"c.	c #E3FFE9",
"d.	c #E3FFE3",
"e.	c #E6FFE2",
"f.	c #E9FFE1",
"g.	c #ECFFE0",
"h.	c #EFFFDF",
"i.	c #F3FFDD",
"j.	c #F5FFDA",
"k.	c #F6FED3",
"l.	c #F4F7C7",
"m.	c #EAE4B6",
"n.	c #CFBE9B",
"o.	c #A68269",
"p.	c #3F1E13",
"q.	c #6C2632",
"r.	c #FCC0D2",
"s.	c #FDD7EE",
"t.	c #FFD4F8",
"u.	c #FCCEFD",
"v.	c #F3CEFE",
"w.	c #EAD0FE",
"x.	c #E1D2FE",
"y.	c #D7D5FE",
"z.	c #D2DCFE",
"A.	c #CDE5FE",
"B.	c #C9EFFE",
"C.	c #C5F8FD",
"D.	c #C2FDF6",
"E.	c #C1FEE8",
"F.	c #C0FEDA",
"G.	c #BFFECB",
"H.	c #BFFEBF",
"I.	c #C5FEBD",
"J.	c #CCFEBC",
"K.	c #D2FEBB",
"L.	c #DAFEBA",
"M.	c #E1FEB8",
"N.	c #E9FEB7",
"O.	c #F1FEB7",
"P.	c #F9FEB6",
"Q.	c #FEF7BA",
"R.	c #FDE8BF",
"S.	c #FDD8BE",
"T.	c #B96B57",
"U.	c #A44855",
"V.	c #FBB9CF",
"W.	c #F8B6DD",
"X.	c #FDB2EF",
"Y.	c #FAACFC",
"Z.	c #EDAFFE",
"`.	c #DEB4FE",
" +	c #CFB8FE",
".+	c #C0BDFE",
"++	c #B8C9FE",
"@+	c #B2D7FE",
"#+	c #ABE6FE",
"$+	c #A5F6FD",
"%+	c #A1FDF2",
"&+	c #A0FEDD",
"*+	c #9FFEC6",
"=+	c #9DFEB0",
"-+	c #9FFE9E",
";+	c #A8FE9B",
">+	c #B3FE9A",
",+	c #BDFE99",
"'+	c #C8FE98",
")+	c #D3FE97",
"!+	c #DFFE96",
"~+	c #EBFE95",
"{+	c #F7FD94",
"]+	c #FDF297",
"^+	c #FBDC9F",
"/+	c #F4C39F",
"(+	c #DC816C",
"_+	c #220502",
":+	c #B24A58",
"<+	c #F69ABA",
"[+	c #F899D1",
"}+	c #FD92E9",
"|+	c #F88BFB",
"1+	c #E68FFE",
"2+	c #D196FE",
"3+	c #BC9DFE",
"4+	c #A9A4FD",
"5+	c #9DB5FE",
"6+	c #95C9FE",
"7+	c #8CDEFE",
"8+	c #83F2FD",
"9+	c #7EFDEE",
"0+	c #7DFED1",
"a+	c #7CFEB3",
"b+	c #7BFE94",
"c+	c #7DFD7D",
"d+	c #8AFE79",
"e+	c #99FE78",
"f+	c #A8FE77",
"g+	c #B7FE75",
"h+	c #C5FE74",
"i+	c #D5FE73",
"j+	c #E4FE72",
"k+	c #F5FD71",
"l+	c #FDEE77",
"m+	c #FBD282",
"n+	c #EFAF7F",
"o+	c #E1765D",
"p+	c #2A0704",
"q+	c #AB3849",
"r+	c #F278A2",
"s+	c #F67CC5",
"t+	c #FD72E3",
"u+	c #F669FB",
"v+	c #DF6FFE",
"w+	c #C578FE",
"x+	c #AA81FD",
"y+	c #918BFE",
"z+	c #819FFC",
"A+	c #74B5F5",
"B+	c #6CD3FC",
"C+	c #62F0FD",
"D+	c #5CFDEA",
"E+	c #5BFEC5",
"F+	c #5AFE9F",
"G+	c #58FE78",
"H+	c #5CFE5B",
"I+	c #6CFD56",
"J+	c #7CF653",
"K+	c #8FF853",
"L+	c #A5FE53",
"M+	c #B8FD52",
"N+	c #CBFE51",
"O+	c #DEFE50",
"P+	c #F2FD4F",
"Q+	c #FCEA56",
"R+	c #FAC864",
"S+	c #EB9A5E",
"T+	c #D75E3F",
"U+	c #210502",
"V+	c #8F1F32",
"W+	c #EF5488",
"X+	c #F45FB8",
"Y+	c #FC53DD",
"Z+	c #F548FA",
"`+	c #D850FE",
" @	c #B95BFE",
".@	c #9866FE",
"+@	c #7770F8",
"@@	c #506AC1",
"#@	c #3B6FA2",
"$@	c #3C9DC1",
"%@	c #40E8F8",
"&@	c #3BFEE6",
"*@	c #3AFEBA",
"=@	c #39FE8C",
"-@	c #37FE5D",
";@	c #3CFE3B",
">@	c #44DA2F",
",@	c #43A623",
"'@	c #56AE24",
")@	c #88E92F",
"!@	c #ABFE31",
"~@	c #C2FE30",
"{@	c #D9FE2F",
"]@	c #F1FD2E",
"^@	c #FCE636",
"/@	c #F8BC45",
"(@	c #E7833C",
"_@	c #BB401D",
":@	c #5C091A",
"<@	c #E92B6C",
"[@	c #F13FA8",
"}@	c #FC34D7",
"|@	c #F427F9",
"1@	c #D131FE",
"2@	c #AC3EFE",
"3@	c #864BFF",
"4@	c #5A50E8",
"5@	c #2D4696",
"6@	c #22588E",
"7@	c #1B7495",
"8@	c #1DD7E7",
"9@	c #19FEE3",
"0@	c #18FEAE",
"a@	c #17FE78",
"b@	c #15FE42",
"c@	c #1BFB19",
"d@	c #21AF0D",
"e@	c #2A8D0A",
"f@	c #388D09",
"g@	c #67C60D",
"h@	c #9EFF10",
"i@	c #B8FE0F",
"j@	c #D3FE0E",
"k@	c #EEFD0E",
"l@	c #FCE318",
"m@	c #F5B027",
"n@	c #E56D19",
"o@	c #7C2304",
"p@	c #1C0006",
"q@	c #BD084A",
"r@	c #F02099",
"s@	c #FD1AD4",
"t@	c #F20CF9",
"u@	c #CC18FE",
"v@	c #A327FE",
"w@	c #7836FE",
"x@	c #4D44F5",
"y@	c #2949B4",
"z@	c #195998",
"A@	c #1288B4",
"B@	c #0BE0F4",
"C@	c #04FEE1",
"D@	c #03FFA9",
"E@	c #03FF6E",
"F@	c #03FE34",
"G@	c #0AFE08",
"H@	c #1BCF01",
"I@	c #279B01",
"J@	c #3BA101",
"K@	c #6DE102",
"L@	c #98FF02",
"M@	c #B4FD02",
"N@	c #D1FE02",
"O@	c #EFFE02",
"P@	c #FEE50E",
"Q@	c #EAA419",
"R@	c #944609",
"S@	c #1B0700",
"T@	c #2D0012",
"U@	c #9B0E63",
"V@	c #E810C1",
"W@	c #F206F8",
"X@	c #CE14FF",
"Y@	c #A324FF",
"Z@	c #7734FF",
"`@	c #4E45FF",
" #	c #3765F8",
".#	c #2689EC",
"+#	c #19BBF9",
"@#	c #09E9FD",
"##	c #00E5CA",
"$#	c #02C381",
"%#	c #02BF52",
"&#	c #00DD29",
"*#	c #08FB06",
"=#	c #24FD02",
"-#	c #3CF002",
";#	c #59F302",
">#	c #7BFE02",
",#	c #9AFF02",
"'#	c #B7FF02",
")#	c #CDFA00",
"!#	c #D4E200",
"~#	c #B0A00C",
"{#	c #614C1A",
"]#	c #0F0A06",
"^#	c #161117",
"/#	c #6A3C67",
"(#	c #88208E",
"_#	c #8C13AF",
":#	c #801CCB",
"<#	c #652ADE",
"[#	c #443CE7",
"}#	c #315EEA",
"|#	c #2284E6",
"1#	c #139CD2",
"2#	c #128E9D",
"3#	c #4A7E7C",
"4#	c #869796",
"5#	c #8B9A98",
"6#	c #52785B",
"7#	c #1B891A",
"8#	c #1CBD03",
"9#	c #34D300",
"0#	c #4CD400",
"a#	c #60CA00",
"b#	c #6EB804",
"c#	c #749E10",
"d#	c #73862A",
"e#	c #797F57",
"f#	c #7D807B",
"g#	c #494D52",
"h#	c #7B8487",
"i#	c #BFCACB",
"j#	c #9FA4AA",
"k#	c #858294",
"l#	c #706C89",
"m#	c #606285",
"n#	c #586584",
"o#	c #5C7185",
"p#	c #73858E",
"q#	c #A7AEB2",
"r#	c #DAE0E5",
"s#	c #E5EDF2",
"t#	c #DBE3E8",
"u#	c #BABDC2",
"v#	c #B1B5BB",
"w#	c #8D9B95",
"x#	c #798E7B",
"y#	c #7A8D79",
"z#	c #859385",
"A#	c #97A09D",
"B#	c #B0B6BC",
"C#	c #CAD1DA",
"D#	c #C7CED4",
"E#	c #9A9EA1",
"F#	c #242629",
"G#	c #2A2D31",
"H#	c #BFC7CC",
"I#	c #E6F0F5",
"J#	c #E3EDF1",
"K#	c #E1EBEE",
"L#	c #DFE8EB",
"M#	c #DEE6E9",
"N#	c #E0E8EC",
"O#	c #E3EBF0",
"P#	c #E3ECF2",
"Q#	c #E1EAEF",
"R#	c #E0E9EE",
"S#	c #D6DEE3",
"T#	c #D8E0E4",
"U#	c #E2EBF0",
"V#	c #E4EDF2",
"W#	c #E3EBF2",
"X#	c #E4ECF2",
"Y#	c #E4EDF3",
"Z#	c #E3ECF1",
"`#	c #CED5D9",
" $	c #ADB1B3",
".$	c #53565A",
"+$	c #505559",
"@$	c #D1DADF",
"#$	c #E1E9EE",
"$$	c #DEE7EC",
"%$	c #C6CDD0",
"&$	c #AFB3B5",
"*$	c #73777A",
"=$	c #62666B",
"-$	c #D3DBE0",
";$	c #E4ECF1",
">$	c #E2EAEF",
",$	c #D8DFE3",
"'$	c #C5CBCE",
")$	c #BDC2C5",
"!$	c #BCC1C4",
"~$	c #C1C6C9",
"{$	c #D1D8DC",
"]$	c #E0E8ED",
"^$	c #C5CACD",
"/$	c #AEB1B3",
"($	c #7D8083",
"_$	c #565B5F",
":$	c #C4CBD1",
"<$	c #E2EBEF",
"[$	c #CFD5D9",
"}$	c #CDD3D6",
"|$	c #D5DCE0",
"1$	c #DFE6EB",
"2$	c #DEE6EB",
"3$	c #C6CBCF",
"4$	c #AAADAF",
"5$	c #727578",
"6$	c #33363A",
"7$	c #D5DDE2",
"8$	c #E1E8ED",
"9$	c #D6DDE1",
"0$	c #BBC0C3",
"a$	c #939698",
"b$	c #4F5255",
"c$	c #42464A",
"d$	c #898F94",
"e$	c #BFC6CB",
"f$	c #DCE4E8",
"g$	c #DDE4E9",
"h$	c #DAE2E6",
"i$	c #D4DBDF",
"j$	c #C7CDD0",
"k$	c #AEB3B6",
"l$	c #888C8E",
"m$	c #55575A",
"n$	c #414447",
"o$	c #575A5E",
"p$	c #626569",
"q$	c #626568",
"r$	c #575A5D",
"s$	c #434548",
"t$	c #292B2D",
"                                                                ",
"                                                                ",
"                                                                ",
"                            . + @ #                             ",
"                      $ % & * = - ; > , ' )                     ",
"                  ! ~ { ] ^ / ( ( / _ ] ( : < [                 ",
"              } | 1 2 3 3 3 3 3 3 3 3 3 3 4 2 5 6               ",
"            7 8 9 0 a a a a a a a a a a a a a b c d             ",
"          e f g h h h h h h h h h h h h h h h h i j k           ",
"          l m n o p q r n s t u v w x y z o A o o o B C         ",
"        D E F G H I J K L M N O P Q R S T U V W X Y Z `         ",
"       ...+.@.#.$.%.&.*.=.-.;.>.,.'.).!.~.{.].^./.(._.:.<.      ",
"    [.}.|.1.2.3.4.5.6.7.8.9.0.a.b.c.d.e.f.g.h.i.j.k.l.m.n.o.p.  ",
"  q.r.s.t.u.v.w.x.y.z.A.B.C.D.E.F.G.H.I.J.K.L.M.N.O.P.Q.R.S.T.  ",
"  U.V.W.X.Y.Z.`. +.+++@+#+$+%+&+*+=+-+;+>+,+'+)+!+~+{+]+^+/+(+_+",
"  :+<+[+}+|+1+2+3+4+5+6+7+8+9+0+a+b+c+d+e+f+g+h+i+j+k+l+m+n+o+p+",
"  q+r+s+t+u+v+w+x+y+z+A+B+C+D+E+F+G+H+I+J+K+L+M+N+O+P+Q+R+S+T+U+",
"  V+W+X+Y+Z+`+ @.@+@@@#@$@%@&@*@=@-@;@>@,@'@)@!@~@{@]@^@/@(@_@  ",
"  :@<@[@}@|@1@2@3@4@5@6@7@8@9@0@a@b@c@d@e@f@g@h@i@j@k@l@m@n@o@  ",
"  p@q@r@s@t@u@v@w@x@y@z@A@B@C@D@E@F@G@H@I@J@K@L@M@N@O@P@Q@R@S@  ",
"    T@U@V@W@X@Y@Z@`@ #.#+#@###$#%#&#*#=#-#;#>#,#'#)#!#~#{#]#    ",
"      ^#/#(#_#:#<#[#}#|#1#2#3#4#5#6#7#8#9#0#a#b#c#d#e#f#g#      ",
"        h#i#j#k#l#m#n#o#p#q#r#s#t#u#v#w#x#y#z#A#B#C#D#E#F#      ",
"        G#H#I#J#K#L#M#N#O#P#Q#R#S#T#U#V#W#W#X#Y#Z#`# $.$        ",
"          +$@$O##$Q#Q#Q#Q##$R##$Q#Q#R##$Q##$Q#$$%$&$*$          ",
"            =$-$;$Q##$Q#>$,$'$)$!$~${$#$>$>$]$^$/$($            ",
"              _$:$;$<$#$>$]$T#[$}$|$1$>$>$2$3$4$5$              ",
"                6$J 7$;$;$>$U#O#O#O#O#8$9$0$a$b$                ",
"                    c$d$e$S#f$g$h$i$j$k$l$m$                    ",
"                          n$o$p$q$r$s$t$                        ",
"                                                                ",
"                                                                "};
