/* XPM */
static char * kdesvn_xpm[] = {
"32 32 179 2",
"  	c None",
". 	c #567CB8",
"+ 	c #5A7FBA",
"@ 	c #5F83BC",
"# 	c #6487BE",
"$ 	c #698BC0",
"% 	c #6E8EC2",
"& 	c #7392C4",
"* 	c #7896C6",
"= 	c #7D9AC8",
"- 	c #819DCA",
"; 	c #86A1CC",
"> 	c #8BA5CE",
", 	c #90A9D0",
"' 	c #95ACD2",
") 	c #9AB0D4",
"! 	c #9FB4D6",
"~ 	c #A3B7D8",
"{ 	c #9EB4D6",
"] 	c #90A8D0",
"^ 	c #7C99C8",
"/ 	c #7796C6",
"( 	c #698AC0",
"_ 	c #5A7FB9",
": 	c #9DB1D1",
"< 	c #5F6A7C",
"[ 	c #353941",
"} 	c #677690",
"| 	c #8796B0",
"1 	c #A3A4A5",
"2 	c #D4D4D4",
"3 	c #1D1F22",
"4 	c #849ABF",
"5 	c #9FACC1",
"6 	c #EEEEEE",
"7 	c #FFFFFF",
"8 	c #737579",
"9 	c #677895",
"0 	c #ACBEDB",
"a 	c #EEEFF0",
"b 	c #E7E7E7",
"c 	c #656A72",
"d 	c #889EC4",
"e 	c #A0B5D6",
"f 	c #D6DFEE",
"g 	c #ABBDDA",
"h 	c #99A7BD",
"i 	c #8499BA",
"j 	c #5E7FB2",
"k 	c #5976A4",
"l 	c #8CA5CB",
"m 	c #7486A3",
"n 	c #93A9CB",
"o 	c #CFDAEA",
"p 	c #AEC0DD",
"q 	c #809AC3",
"r 	c #7690B9",
"s 	c #496490",
"t 	c #1A1D21",
"u 	c #5D6269",
"v 	c #5D6F8D",
"w 	c #869FC7",
"x 	c #22262B",
"y 	c #7B7D81",
"z 	c #B1B6BC",
"A 	c #B0C0D9",
"B 	c #9AB1D4",
"C 	c #C2C8D1",
"D 	c #878D97",
"E 	c #5A6D8C",
"F 	c #2D3849",
"G 	c #B2B2B2",
"H 	c #888E99",
"I 	c #88A1C8",
"J 	c #91A9D0",
"K 	c #95ADD2",
"L 	c #98AFD3",
"M 	c #9CB2D5",
"N 	c #7E8DA4",
"O 	c #78797B",
"P 	c #E6E6E6",
"Q 	c #AAB8CE",
"R 	c #B4C4DF",
"S 	c #B0C2DD",
"T 	c #ADBEDC",
"U 	c #A8BBDA",
"V 	c #A4B8D8",
"W 	c #D5DEED",
"X 	c #FEFEFE",
"Y 	c #F4F4F4",
"Z 	c #474E5A",
"` 	c #2B3443",
" .	c #BEBEBE",
"..	c #92979F",
"+.	c #99ADCE",
"@.	c #A2B6D7",
"#.	c #A5B9D9",
"$.	c #ABBEDC",
"%.	c #94A0B4",
"&.	c #898A8B",
"*.	c #EAEAEA",
"=.	c #B7C3D6",
"-.	c #BFCDE4",
";.	c #BCCBE2",
">.	c #B9C8E1",
",.	c #B6C6E0",
"'.	c #B2C3DE",
").	c #DAE2EF",
"!.	c #F5F5F5",
"~.	c #48505B",
"{.	c #425B83",
"].	c #25272B",
"^.	c #808387",
"/.	c #5F6F88",
"(.	c #87A0C8",
"_.	c #262A31",
":.	c #6E7175",
"<.	c #ABAFB7",
"[.	c #B4C3DB",
"}.	c #99AFD3",
"|.	c #BBC2CD",
"1.	c #818792",
"2.	c #5D7191",
"3.	c #5674A3",
"4.	c #506A93",
"5.	c #6D8CC0",
"6.	c #8EA7CE",
"7.	c #7A8DAC",
"8.	c #96ABCF",
"9.	c #CCD7E9",
"0.	c #B1C2DE",
"a.	c #819BC5",
"b.	c #7993BE",
"c.	c #D0D9E8",
"d.	c #909EB4",
"e.	c #A0ADC3",
"f.	c #95ABD0",
"g.	c #6E89B5",
"h.	c #647186",
"i.	c #475A79",
"j.	c #6183B9",
"k.	c #758194",
"l.	c #BBBBBC",
"m.	c #F1F1F1",
"n.	c #A9B2C0",
"o.	c #8EA6CE",
"p.	c #B9C0CC",
"q.	c #77797E",
"r.	c #425A7E",
"s.	c #545B66",
"t.	c #DDDDDD",
"u.	c #B6B8BA",
"v.	c #BAC5D8",
"w.	c #C5D2E6",
"x.	c #C2D0E5",
"y.	c #C0CEE4",
"z.	c #BDCCE3",
"A.	c #BBCBE2",
"B.	c #E4E5E6",
"C.	c #BABABA",
"D.	c #334258",
"E.	c #606B7D",
"F.	c #78797A",
"G.	c #CBCBCB",
"H.	c #6A7079",
"I.	c #8AA2C8",
"J.	c #B1B9C7",
"K.	c #E2E2E2",
"L.	c #696C72",
"M.	c #465F86",
"N.	c #9EB1D2",
"O.	c #525C6C",
"P.	c #484F5B",
"Q.	c #7D91B1",
"R.	c #6D8AB8",
"S.	c #64748E",
"T.	c #4C6388",
"U.	c #6385BC",
"V.	c #5B5B5B",
". + @ # $ % & * = - ; > , ' ) ! ~ { ) ' ] > ; - ^ / & % ( # @ _ ",
". + @ # $ % & * = - ; > , ' ) ! ~ { ) ' ] > ; - ^ / & % ( # @ _ ",
". + @ # $ % & * = - ; > , ' ) ! ~ { ) ' ] > ; - ^ / & % ( # @ _ ",
". + @ # $ % & * = - ; > , ' ) ! ~ { ) ' ] > ; - ^ / & % ( # @ _ ",
". + @ # $ % & * = - ; > , ' ) ! ~ { ) ' ] > ; - ^ / & % ( # @ _ ",
". + @ # $ % & * = - ; > , ' ) ! : < [ } ] > ; - ^ / & % ( # @ _ ",
". + @ # $ % & * = - ; > , ' ) ! | 1 2 3 4 > ; - ^ / & % ( # @ _ ",
". + @ # $ % & * = - ; > , ' ) ! 5 6 7 8 9 > ; - ^ / & % ( # @ _ ",
". + @ # $ % & * = - ; > , ' ) ! 0 a b c d > ; - ^ / & % ( # @ _ ",
". + @ # $ % & * = - ; > , ' ) e f g h i ] > ; - ^ / & % ( # @ _ ",
". + @ j k % & * = - ; > l m n o p { ) ' ] > q r ^ / & % ( # @ _ ",
". + s t u v & * = - ; w x y z A ~ { ) ' ] B C D E / & % ( # @ _ ",
". + F G 7 H I J K L M N O 7 P Q R S T U V W X Y Z / & % ( # @ _ ",
". + `  .7 ..+.@.#.U $.%.&.7 *.=.-.;.>.,.'.).X !.~./ & % ( # @ _ ",
". + {.].^./.& * = - ; (._.:.<.[.~ { ) ' ] }.|.1.2./ & % ( # @ _ ",
". + @ 3.4.5.& * = - ; > 6.7.8.9.0.{ ) ' ] > a.b.^ / & % ( # @ _ ",
". + @ # $ % & * = - ; > , ' ) ! c.d.e.f.] > ; - ^ / g.h.i.j.@ _ ",
". + @ # $ % & * = - ; > , ' ) ! k.l.m.n.o.> ; - ^ / p.6 q.r.@ _ ",
". + @ # $ % & * = - ; > , ' ) ! s.t.7 u.v.w.x.y.z.A.B.7 C.D.@ _ ",
". + @ # $ % & * = - ; > , ' ) ! E.F.G.H.I.> ; - ^ / J.K.L.M.@ _ ",
". + @ # $ % & * = - ; > , ' ) ! N.O.P.Q.] > ; - ^ / R.S.T.U.@ _ ",
". + @ # $ % & * = - ; > , ' ) ! ~ { ) ' ] > ; - ^ / & % ( # @ _ ",
". + @ # $ % & * = - ; > , ' ) ! ~ { ) ' ] > ; - ^ / & % ( # @ _ ",
". + @ # $ % & * = - ; > , ' ) ! ~ { ) ' ] > ; - ^ / & % ( # @ _ ",
". + @ # $ % & * = - ; > , ' ) ! ~ { ) ' ] > ; - ^ / & % ( # @ _ ",
". + @ # $ % & * = - ; > , ' ) ! ~ { ) ' ] > ; - ^ / & % ( # @ _ ",
". + @ # $ % & * = - ; > , ' ) ! ~ { ) ' ] > ; - ^ / & % ( # @ _ ",
"                                                                ",
"                                                          V.    ",
"                                                                ",
"                                                V.              ",
"                                                                "};
