<?xml version="1.0" encoding="UTF-8" standalone="no"?>
<!-- Created with Inkscape (http://www.inkscape.org/) -->

<svg
   xmlns:dc="http://purl.org/dc/elements/1.1/"
   xmlns:cc="http://creativecommons.org/ns#"
   xmlns:rdf="http://www.w3.org/1999/02/22-rdf-syntax-ns#"
   xmlns:svg="http://www.w3.org/2000/svg"
   xmlns="http://www.w3.org/2000/svg"
   xmlns:xlink="http://www.w3.org/1999/xlink"
   xmlns:sodipodi="http://sodipodi.sourceforge.net/DTD/sodipodi-0.dtd"
   xmlns:inkscape="http://www.inkscape.org/namespaces/inkscape"
   width="32px"
   height="32px"
   id="svg6639"
   version="1.1"
   inkscape:version="0.48.0 r9654"
   sodipodi:docname="test_rond.svg">
  <defs
     id="defs6641">
    <linearGradient
       gradientTransform="translate(-217.49002,-504.04797)"
       id="SVGID_144_"
       gradientUnits="userSpaceOnUse"
       x1="233.5"
       y1="520.32031"
       x2="233.5"
       y2="498.52591">
      <stop
         offset="0"
         style="stop-color:#FFFFFF;stop-opacity:0.5"
         id="stop6136" />
      <stop
         offset="0.4485"
         style="stop-color:#FFFFFF;stop-opacity:0"
         id="stop6138" />
    </linearGradient>
    <linearGradient
       id="path827_1_"
       gradientUnits="userSpaceOnUse"
       x1="237.6899"
       y1="764.00677"
       x2="237.6899"
       y2="766.55182"
       gradientTransform="matrix(1,0,0,-1,-219.38992,770.35243)">
      <stop
         offset="0"
         style="stop-color:#4EA2DC"
         id="stop4955" />
      <stop
         offset="1"
         style="stop-color:#CDE3FF"
         id="stop4957" />
    </linearGradient>
    <linearGradient
       id="path820_1_"
       gradientUnits="userSpaceOnUse"
       x1="234.2964"
       y1="765.98541"
       x2="234.2964"
       y2="768.24799"
       gradientTransform="matrix(1,0,0,-1,-219.38992,770.35243)">
      <stop
         offset="0"
         style="stop-color:#4EA2DC"
         id="stop4949" />
      <stop
         offset="1"
         style="stop-color:#CDE3FF"
         id="stop4951" />
    </linearGradient>
    <linearGradient
       id="path813_1_"
       gradientUnits="userSpaceOnUse"
       x1="238.1138"
       y1="758.77338"
       x2="238.1138"
       y2="761.88568"
       gradientTransform="matrix(1,0,0,-1,-219.38992,770.35243)">
      <stop
         offset="0"
         style="stop-color:#4EA2DC"
         id="stop4943" />
      <stop
         offset="1"
         style="stop-color:#CDE3FF"
         id="stop4945" />
    </linearGradient>
    <linearGradient
       id="path806_1_"
       gradientUnits="userSpaceOnUse"
       x1="235.0034"
       y1="761.46088"
       x2="235.0034"
       y2="764.28809"
       gradientTransform="matrix(1,0,0,-1,-219.38992,770.35243)">
      <stop
         offset="0"
         style="stop-color:#4EA2DC"
         id="stop4937" />
      <stop
         offset="1"
         style="stop-color:#CDE3FF"
         id="stop4939" />
    </linearGradient>
    <linearGradient
       id="path799_1_"
       gradientUnits="userSpaceOnUse"
       x1="233.0239"
       y1="757.64258"
       x2="233.0239"
       y2="761.03607"
       gradientTransform="matrix(1,0,0,-1,-219.38992,770.35243)">
      <stop
         offset="0"
         style="stop-color:#4EA2DC"
         id="stop4931" />
      <stop
         offset="1"
         style="stop-color:#CDE3FF"
         id="stop4933" />
    </linearGradient>
    <linearGradient
       id="path792_1_"
       gradientUnits="userSpaceOnUse"
       x1="216.2861"
       y1="668.24799"
       x2="216.2861"
       y2="685.1748"
       gradientTransform="matrix(1,0,0,-1,-1.8999,1130.4004)">
      <stop
         offset="0"
         style="stop-color:#4EA2DC"
         id="stop4925" />
      <stop
         offset="1"
         style="stop-color:#CDE3FF"
         id="stop4927" />
    </linearGradient>
    <linearGradient
       id="path781_1_"
       gradientUnits="userSpaceOnUse"
       x1="216.2861"
       y1="666.24799"
       x2="216.2861"
       y2="698.24799"
       gradientTransform="matrix(1,0,0,-1,-1.8999,1130.4004)">
      <stop
         offset="0"
         style="stop-color:#253774"
         id="stop4915" />
      <stop
         offset="0.6748"
         style="stop-color:#0069B3"
         id="stop4917" />
      <stop
         offset="1"
         style="stop-color:#2397D4"
         id="stop4919" />
    </linearGradient>
    <radialGradient
       gradientTransform="translate(-336.83363,-421.80696)"
       id="SVGID_86_"
       cx="353.12939"
       cy="451.68161"
       r="16.8687"
       gradientUnits="userSpaceOnUse">
      <stop
         offset="0"
         style="stop-color:#2397D4"
         id="stop5558" />
      <stop
         offset="0.3252"
         style="stop-color:#0069B3"
         id="stop5560" />
      <stop
         offset="1"
         style="stop-color:#253774"
         id="stop5562" />
    </radialGradient>
    <radialGradient
       id="SVGID_85_"
       cx="352.67291"
       cy="600.85162"
       r="10.2375"
       gradientTransform="matrix(1,0,0,0.5146,0,120.2001)"
       gradientUnits="userSpaceOnUse">
      <stop
         offset="0"
         style="stop-color:#FFFFFF"
         id="stop5551" />
      <stop
         offset="1"
         style="stop-color:#FFFFFF;stop-opacity:0"
         id="stop5553" />
    </radialGradient>
    <linearGradient
       id="SVGID_79_"
       gradientUnits="userSpaceOnUse"
       x1="373.5239"
       y1="752.03607"
       x2="373.5239"
       y2="767.75"
       gradientTransform="matrix(1,0,0,-1,-20.8999,1202.4004)">
      <stop
         offset="0"
         style="stop-color:#4EA2DC"
         id="stop5509" />
      <stop
         offset="1"
         style="stop-color:#CDE3FF"
         id="stop5511" />
    </linearGradient>
    <linearGradient
       id="SVGID_80_"
       gradientUnits="userSpaceOnUse"
       x1="371.52881"
       y1="767.37598"
       x2="371.52881"
       y2="770.36823"
       gradientTransform="matrix(1,0,0,-1,-20.8999,1202.4004)">
      <stop
         offset="0"
         style="stop-color:#4EA2DC"
         id="stop5516" />
      <stop
         offset="1"
         style="stop-color:#CDE3FF"
         id="stop5518" />
    </linearGradient>
    <linearGradient
       id="SVGID_81_"
       gradientUnits="userSpaceOnUse"
       x1="373.2749"
       y1="770.74219"
       x2="373.2749"
       y2="773.2373"
       gradientTransform="matrix(1,0,0,-1,-20.8999,1202.4004)">
      <stop
         offset="0"
         style="stop-color:#4EA2DC"
         id="stop5523" />
      <stop
         offset="1"
         style="stop-color:#CDE3FF"
         id="stop5525" />
    </linearGradient>
    <linearGradient
       id="SVGID_82_"
       gradientUnits="userSpaceOnUse"
       x1="376.0181"
       y1="768.37402"
       x2="376.0181"
       y2="771.11719"
       gradientTransform="matrix(1,0,0,-1,-20.8999,1202.4004)">
      <stop
         offset="0"
         style="stop-color:#4EA2DC"
         id="stop5530" />
      <stop
         offset="1"
         style="stop-color:#CDE3FF"
         id="stop5532" />
    </linearGradient>
    <linearGradient
       id="SVGID_83_"
       gradientUnits="userSpaceOnUse"
       x1="372.65091"
       y1="774.73242"
       x2="372.65091"
       y2="776.72949"
       gradientTransform="matrix(1,0,0,-1,-20.8999,1202.4004)">
      <stop
         offset="0"
         style="stop-color:#4EA2DC"
         id="stop5537" />
      <stop
         offset="1"
         style="stop-color:#CDE3FF"
         id="stop5539" />
    </linearGradient>
    <linearGradient
       id="SVGID_84_"
       gradientUnits="userSpaceOnUse"
       x1="375.64401"
       y1="772.98633"
       x2="375.64401"
       y2="775.23138"
       gradientTransform="matrix(1,0,0,-1,-20.8999,1202.4004)">
      <stop
         offset="0"
         style="stop-color:#4EA2DC"
         id="stop5544" />
      <stop
         offset="1"
         style="stop-color:#CDE3FF"
         id="stop5546" />
    </linearGradient>
    <radialGradient
       gradientTransform="translate(-336.83363,-421.80696)"
       id="SVGID_78_"
       cx="353.1279"
       cy="451.67969"
       r="16.8687"
       gradientUnits="userSpaceOnUse">
      <stop
         offset="0"
         style="stop-color:#2397D4"
         id="stop5496" />
      <stop
         offset="0.6606"
         style="stop-color:#0069B3"
         id="stop5498" />
      <stop
         offset="1"
         style="stop-color:#253774"
         id="stop5500" />
    </radialGradient>
    <radialGradient
       id="SVGID_77_"
       cx="352.72711"
       cy="440.5596"
       r="13.9677"
       fx="362.53101"
       fy="450.50839"
       gradientUnits="userSpaceOnUse">
      <stop
         offset="0"
         style="stop-color:#2397D4"
         id="stop5487" />
      <stop
         offset="0.7697"
         style="stop-color:#0069B3"
         id="stop5489" />
      <stop
         offset="1"
         style="stop-color:#253774"
         id="stop5491" />
    </radialGradient>
    <radialGradient
       gradientTransform="translate(-336.83363,-421.80696)"
       r="13.9677"
       fy="450.50839"
       fx="362.53101"
       cy="440.5596"
       cx="352.72711"
       gradientUnits="userSpaceOnUse"
       id="radialGradient6848-1"
       xlink:href="#SVGID_77_-9"
       inkscape:collect="always" />
    <radialGradient
       id="SVGID_77_-9"
       cx="352.72711"
       cy="440.5596"
       r="13.9677"
       fx="362.53101"
       fy="450.50839"
       gradientUnits="userSpaceOnUse">
      <stop
         offset="0"
         style="stop-color:#2397D4"
         id="stop5487-4" />
      <stop
         offset="0.7697"
         style="stop-color:#0069B3"
         id="stop5489-7" />
      <stop
         offset="1"
         style="stop-color:#253774"
         id="stop5491-8" />
    </radialGradient>
    <radialGradient
       gradientTransform="translate(-336.47642,-422.7893)"
       id="SVGID_78_-4"
       cx="353.1279"
       cy="451.67969"
       r="16.8687"
       gradientUnits="userSpaceOnUse">
      <stop
         offset="0"
         style="stop-color:#2397D4"
         id="stop5496-5" />
      <stop
         offset="0.6606"
         style="stop-color:#0069B3"
         id="stop5498-0" />
      <stop
         offset="1"
         style="stop-color:#253774"
         id="stop5500-3" />
    </radialGradient>
    <linearGradient
       id="SVGID_79_-6"
       gradientUnits="userSpaceOnUse"
       x1="373.5239"
       y1="752.03607"
       x2="373.5239"
       y2="767.75"
       gradientTransform="matrix(1,0,0,-1,-20.8999,1202.4004)">
      <stop
         offset="0"
         style="stop-color:#4EA2DC"
         id="stop5509-1" />
      <stop
         offset="1"
         style="stop-color:#CDE3FF"
         id="stop5511-0" />
    </linearGradient>
    <linearGradient
       id="SVGID_80_-6"
       gradientUnits="userSpaceOnUse"
       x1="371.52881"
       y1="767.37598"
       x2="371.52881"
       y2="770.36823"
       gradientTransform="matrix(1,0,0,-1,-20.8999,1202.4004)">
      <stop
         offset="0"
         style="stop-color:#4EA2DC"
         id="stop5516-3" />
      <stop
         offset="1"
         style="stop-color:#CDE3FF"
         id="stop5518-2" />
    </linearGradient>
    <linearGradient
       id="SVGID_81_-0"
       gradientUnits="userSpaceOnUse"
       x1="373.2749"
       y1="770.74219"
       x2="373.2749"
       y2="773.2373"
       gradientTransform="matrix(1,0,0,-1,-20.8999,1202.4004)">
      <stop
         offset="0"
         style="stop-color:#4EA2DC"
         id="stop5523-6" />
      <stop
         offset="1"
         style="stop-color:#CDE3FF"
         id="stop5525-1" />
    </linearGradient>
    <linearGradient
       id="SVGID_82_-5"
       gradientUnits="userSpaceOnUse"
       x1="376.0181"
       y1="768.37402"
       x2="376.0181"
       y2="771.11719"
       gradientTransform="matrix(1,0,0,-1,-20.8999,1202.4004)">
      <stop
         offset="0"
         style="stop-color:#4EA2DC"
         id="stop5530-5" />
      <stop
         offset="1"
         style="stop-color:#CDE3FF"
         id="stop5532-4" />
    </linearGradient>
    <linearGradient
       id="SVGID_83_-7"
       gradientUnits="userSpaceOnUse"
       x1="372.65091"
       y1="774.73242"
       x2="372.65091"
       y2="776.72949"
       gradientTransform="matrix(1,0,0,-1,-20.8999,1202.4004)">
      <stop
         offset="0"
         style="stop-color:#4EA2DC"
         id="stop5537-6" />
      <stop
         offset="1"
         style="stop-color:#CDE3FF"
         id="stop5539-5" />
    </linearGradient>
    <linearGradient
       id="SVGID_84_-6"
       gradientUnits="userSpaceOnUse"
       x1="375.64401"
       y1="772.98633"
       x2="375.64401"
       y2="775.23138"
       gradientTransform="matrix(1,0,0,-1,-20.8999,1202.4004)">
      <stop
         offset="0"
         style="stop-color:#4EA2DC"
         id="stop5544-9" />
      <stop
         offset="1"
         style="stop-color:#CDE3FF"
         id="stop5546-3" />
    </linearGradient>
    <radialGradient
       id="SVGID_85_-7"
       cx="352.67291"
       cy="600.85162"
       r="10.2375"
       gradientTransform="matrix(1,0,0,0.5146,0,120.2001)"
       gradientUnits="userSpaceOnUse">
      <stop
         offset="0"
         style="stop-color:#FFFFFF"
         id="stop5551-4" />
      <stop
         offset="1"
         style="stop-color:#FFFFFF;stop-opacity:0"
         id="stop5553-5" />
    </radialGradient>
    <radialGradient
       gradientTransform="translate(-336.47642,-422.7893)"
       id="SVGID_86_-2"
       cx="353.12939"
       cy="451.68161"
       r="16.8687"
       gradientUnits="userSpaceOnUse">
      <stop
         offset="0"
         style="stop-color:#2397D4"
         id="stop5558-5" />
      <stop
         offset="0.3252"
         style="stop-color:#0069B3"
         id="stop5560-4" />
      <stop
         offset="1"
         style="stop-color:#253774"
         id="stop5562-7" />
    </radialGradient>
    <radialGradient
       r="13.9677"
       fy="450.50839"
       fx="362.53101"
       cy="440.5596"
       cx="352.72711"
       gradientTransform="translate(-336.47642,-422.7893)"
       gradientUnits="userSpaceOnUse"
       id="radialGradient7057"
       xlink:href="#SVGID_77_-9"
       inkscape:collect="always" />
  </defs>
  <sodipodi:namedview
     id="base"
     pagecolor="#ffffff"
     bordercolor="#666666"
     borderopacity="1.0"
     inkscape:pageopacity="0.0"
     inkscape:pageshadow="2"
     inkscape:zoom="11.197802"
     inkscape:cx="16"
     inkscape:cy="16"
     inkscape:current-layer="layer1"
     showgrid="true"
     inkscape:grid-bbox="true"
     inkscape:document-units="px"
     inkscape:window-width="1280"
     inkscape:window-height="966"
     inkscape:window-x="-3"
     inkscape:window-y="-3"
     inkscape:window-maximized="1" />
  <metadata
     id="metadata6644">
    <rdf:RDF>
      <cc:Work
         rdf:about="">
        <dc:format>image/svg+xml</dc:format>
        <dc:type
           rdf:resource="http://purl.org/dc/dcmitype/StillImage" />
        <dc:title></dc:title>
      </cc:Work>
    </rdf:RDF>
  </metadata>
  <g
     id="layer1"
     inkscape:label="Layer 1"
     inkscape:groupmode="layer">
    <path
       style="fill:url(#radialGradient7057)"
       inkscape:connector-curvature="0"
       d="m 10.301583,14.192704 c 1.862,0.381 3.791,0.582 5.766,0.582 2.337001,0 4.611001,-0.283 6.785001,-0.81 l 0.01,0.003 c 2.435,-0.593 4.747,-1.493 6.891,-2.659 -1.815,-5.8390001 -7.267,-10.0790001 -13.686001,-10.0790001 -6.4190003,0 -11.8720003,4.24 -13.6860003,10.0750001 2.444,1.33 5.106,2.314 7.9190003,2.89"
       id="path5493" />
    <path
       style="fill:url(#SVGID_78_-4)"
       inkscape:connector-curvature="0"
       d="m 10.302583,14.197704 c -2.8130003,-0.574 -5.4750003,-1.561 -7.9190003,-2.889 -0.424,1.34 -0.641,2.77 -0.641,4.249 0,2.88 0.852,5.563 2.314,7.812 2.558,3.932 6.9870003,6.534 12.0120003,6.534 4.583001,0 8.677001,-2.167 11.303001,-5.531 1.897,-2.435 3.033,-5.495 3.033,-8.814 -0.012,-1.479 -0.229,-2.911 -0.652,-4.253 -2.145,1.165 -4.457,2.068 -6.891,2.661 -2.177,0.528 -4.454,0.81 -6.794001,0.81 -1.976,0 -3.904,-0.202 -5.766,-0.581"
       id="path5502" />
    <g
       transform="translate(-336.47642,-422.7893)"
       id="g5504">
      <g
         id="g5506">
        <linearGradient
           id="linearGradient6804"
           gradientUnits="userSpaceOnUse"
           x1="373.5239"
           y1="752.03607"
           x2="373.5239"
           y2="767.75"
           gradientTransform="matrix(1,0,0,-1,-20.8999,1202.4004)">
          <stop
             offset="0"
             style="stop-color:#4EA2DC"
             id="stop6806" />
          <stop
             offset="1"
             style="stop-color:#CDE3FF"
             id="stop6808" />
        </linearGradient>
        <path
           style="fill:url(#SVGID_79_-6)"
           inkscape:connector-curvature="0"
           d="m 352.624,450.364 c -4.607,0 -8.354,-3.895 -8.354,-8.681 0,-2.63 1.131,-5.091 3.106,-6.75 0.449,-0.377 1.106,-0.377 1.555,0 1.062,0.893 2.339,1.365 3.693,1.365 1.357,0 2.636,-0.473 3.696,-1.365 0.45,-0.377 1.107,-0.377 1.557,0 1.972,1.658 3.103,4.118 3.103,6.75 -0.001,4.787 -3.749,8.681 -8.356,8.681 z m -4.349,-12.91 c -1.01,1.146 -1.575,2.646 -1.575,4.233 0,3.443 2.658,6.241 5.923,6.241 3.267,0 5.923,-2.798 5.923,-6.241 0,-1.59 -0.563,-3.087 -1.571,-4.233 -1.303,0.827 -2.814,1.274 -4.352,1.274 -1.536,10e-4 -3.045,-0.447 -4.348,-1.274 z"
           id="path5513" />
      </g>
      <linearGradient
         id="linearGradient6811"
         gradientUnits="userSpaceOnUse"
         x1="371.52881"
         y1="767.37598"
         x2="371.52881"
         y2="770.36823"
         gradientTransform="matrix(1,0,0,-1,-20.8999,1202.4004)">
        <stop
           offset="0"
           style="stop-color:#4EA2DC"
           id="stop6813" />
        <stop
           offset="1"
           style="stop-color:#CDE3FF"
           id="stop6815" />
      </linearGradient>
      <path
         style="fill:url(#SVGID_80_-6)"
         inkscape:connector-curvature="0"
         d="m 350.629,435.024 0,0 c -0.825,0 -1.496,-0.67 -1.497,-1.494 -0.001,-0.826 0.67,-1.498 1.494,-1.498 0.826,0 1.498,0.67 1.498,1.494 0.002,0.826 -0.669,1.497 -1.495,1.498 l 0,0 z"
         id="path5520" />
      <linearGradient
         id="linearGradient6818"
         gradientUnits="userSpaceOnUse"
         x1="373.2749"
         y1="770.74219"
         x2="373.2749"
         y2="773.2373"
         gradientTransform="matrix(1,0,0,-1,-20.8999,1202.4004)">
        <stop
           offset="0"
           style="stop-color:#4EA2DC"
           id="stop6820" />
        <stop
           offset="1"
           style="stop-color:#CDE3FF"
           id="stop6822" />
      </linearGradient>
      <path
         style="fill:url(#SVGID_81_-0)"
         inkscape:connector-curvature="0"
         d="m 352.375,431.658 0,0 c -0.688,0 -1.247,-0.559 -1.247,-1.245 0,-0.335 0.128,-0.648 0.364,-0.884 0.236,-0.236 0.549,-0.366 0.881,-0.366 0.689,0 1.248,0.559 1.249,1.245 10e-4,0.334 -0.129,0.648 -0.365,0.884 -0.236,0.236 -0.548,0.366 -0.882,0.366 l 0,0 z"
         id="path5527" />
      <linearGradient
         id="linearGradient6825"
         gradientUnits="userSpaceOnUse"
         x1="376.0181"
         y1="768.37402"
         x2="376.0181"
         y2="771.11719"
         gradientTransform="matrix(1,0,0,-1,-20.8999,1202.4004)">
        <stop
           offset="0"
           style="stop-color:#4EA2DC"
           id="stop6827" />
        <stop
           offset="1"
           style="stop-color:#CDE3FF"
           id="stop6829" />
      </linearGradient>
      <path
         style="fill:url(#SVGID_82_-5)"
         inkscape:connector-curvature="0"
         d="m 355.118,434.026 c -0.756,0 -1.372,-0.613 -1.372,-1.369 -10e-4,-0.757 0.614,-1.374 1.37,-1.374 0.757,0 1.373,0.614 1.374,1.37 0,0.757 -0.615,1.373 -1.372,1.373 l 0,0 0,0 z"
         id="path5534" />
      <linearGradient
         id="linearGradient6832"
         gradientUnits="userSpaceOnUse"
         x1="372.65091"
         y1="774.73242"
         x2="372.65091"
         y2="776.72949"
         gradientTransform="matrix(1,0,0,-1,-20.8999,1202.4004)">
        <stop
           offset="0"
           style="stop-color:#4EA2DC"
           id="stop6834" />
        <stop
           offset="1"
           style="stop-color:#CDE3FF"
           id="stop6836" />
      </linearGradient>
      <path
         style="fill:url(#SVGID_83_-7)"
         inkscape:connector-curvature="0"
         d="m 351.751,427.668 0,0 c -0.551,0 -0.998,-0.447 -0.998,-0.997 0,-0.268 0.103,-0.519 0.291,-0.706 0.188,-0.188 0.438,-0.294 0.706,-0.294 0.55,0 0.997,0.447 0.998,0.997 0.002,0.551 -0.446,0.999 -0.997,1 l 0,0 z"
         id="path5541" />
      <linearGradient
         id="linearGradient6839"
         gradientUnits="userSpaceOnUse"
         x1="375.64401"
         y1="772.98633"
         x2="375.64401"
         y2="775.23138"
         gradientTransform="matrix(1,0,0,-1,-20.8999,1202.4004)">
        <stop
           offset="0"
           style="stop-color:#4EA2DC"
           id="stop6841" />
        <stop
           offset="1"
           style="stop-color:#CDE3FF"
           id="stop6843" />
      </linearGradient>
      <path
         style="fill:url(#SVGID_84_-6)"
         inkscape:connector-curvature="0"
         d="m 354.745,429.414 h -10e-4 c -0.618,0 -1.121,-0.503 -1.122,-1.122 0,-0.62 0.503,-1.123 1.122,-1.123 0.619,0 1.122,0.503 1.123,1.12 10e-4,0.301 -0.117,0.583 -0.329,0.795 -0.212,0.212 -0.494,0.328 -0.793,0.33 l 0,0 z"
         id="path5548" />
    </g>
    <ellipse
       transform="translate(-336.47642,-422.7893)"
       style="fill:url(#SVGID_85_-7)"
       sodipodi:ry="5.2680001"
       sodipodi:rx="10.239"
       sodipodi:cy="429.39801"
       sodipodi:cx="352.673"
       cx="352.673"
       cy="429.39801"
       rx="10.239"
       ry="5.2680001"
       id="ellipse5555" />
    <path
       style="opacity:0.1;fill:url(#SVGID_86_-2)"
       inkscape:connector-curvature="0"
       d="m 10.304583,14.200704 c -2.8130003,-0.573 -5.4760003,-1.56 -7.9190003,-2.889 -0.424,1.341 -0.641,2.77 -0.641,4.249 0,2.88 0.852,5.563 2.314,7.813 2.558,3.932 6.9870003,6.533 12.0120003,6.533 4.583001,0 8.677001,-2.166 11.303001,-5.531 1.897,-2.435 3.033,-5.494 3.033,-8.814 -0.012,-1.479 -0.229,-2.91 -0.653,-4.252 -2.145,1.165 -4.457,2.067 -6.891,2.66 -2.177,0.528 -4.454,0.811 -6.794001,0.811 -1.976,0 -3.904,-0.202 -5.766,-0.581"
       id="path5564" />
  </g>
</svg>
