/* XPM */
static char *knetload[] = {
/* columns rows colors chars-per-pixel */
"32 32 75 1",
"  c black",
". c #1A0016",
"X c #1E0019",
"o c #22001C",
"O c #24001E",
"+ c #260020",
"@ c #2A0023",
"# c #2C0025",
"$ c #2E0026",
"% c #32002A",
"& c #34002C",
"* c #36002D",
"= c #38002F",
"- c #3C0032",
"; c #3E0034",
": c #400036",
"> c #440039",
", c #48003C",
"< c #4A003E",
"1 c #4C0040",
"2 c #4E0042",
"3 c #540047",
"4 c #5A004C",
"5 c #5C004D",
"6 c #5E004F",
"7 c #660056",
"8 c #680058",
"9 c #6C005B",
"0 c #720060",
"q c #740062",
"w c #760063",
"e c #780065",
"r c #7E006A",
"t c #4C4C4C",
"y c gray47",
"u c #82006E",
"i c #84006F",
"p c #860071",
"a c #880073",
"s c #8A0074",
"d c #8E0078",
"f c #900079",
"g c #92007B",
"h c #96007F",
"j c #980080",
"k c #9C0084",
"l c #A00087",
"z c #A20089",
"x c #A4008A",
"c c #A8008E",
"v c #AA0090",
"b c #B40098",
"n c #B6009A",
"m c #B8009B",
"M c #BA009D",
"N c #BC009F",
"B c #BE00A0",
"V c #C200A4",
"C c #C600A7",
"Z c #CC00AC",
"A c #CE00AE",
"S c #D000B0",
"D c #D200B1",
"F c #D800B6",
"G c #DC00BA",
"H c #E000BD",
"J c #E400C1",
"K c #E600C2",
"L c #EA00C6",
"P c #EE00C9",
"I c #F000CB",
"U c #F600D0",
"Y c #FC00D5",
"T c #FE00D7",
"R c gray100",
/* pixels */
"tttttttttttttttttttttttttttttttt",
"t                              R",
"t                              R",
"t                              R",
"t                              R",
"t                              R",
"t                              R",
"t                              R",
"t     U                        R",
"t     L                        R",
"t   yyGyyTyTyyyyyyyyyyyyyyyy   R",
"t     S  I I  II               R",
"t   T V TH H  HH               R",
"t   P bTPS S  SS               R",
"t   G cLGV VU VV        U      R",
"t   ZykFZbTbJTbbTYTyyTTyHTYT   R",
"t   NTdCNxJxSJxxJKKTTJKTAKKK   R",
"t   vJubvhShBShhSSDJKDDKNDDD   R",
"t   hZ0xjpBpvBppNNNAANNAcNNN   R",
"t   pN7gpecejceecccmmccmkccc   R",
"t   0x4re8g8pg88gggllggliggg   R",
"t   7s2974r40r44rrrssrrs0rrr   R",
"t   30;43<8<58<<888008805888   R",
"t   >4*<>-3-23--333553352333   R",
"t   %>+*%$-$*;$@;;;>>;;>=;;;   R",
"t   o$.OoX@X+@XX@@@$$@@$+@@@   R",
"t                              R",
"t                              R",
"t                              R",
"t                              R",
"t                              R",
"tRRRRRRRRRRRRRRRRRRRRRRRRRRRRRRR"
};
