/* XPM */
static char *wlassistant[] = {
/* columns rows colors chars-per-pixel */
"32 32 251 2",
"   c black",
".  c #010000",
"X  c #010101",
"o  c #000200",
"O  c #020000",
"+  c #030000",
"@  c #020202",
"#  c gray1",
"$  c #000401",
"%  c #000601",
"&  c #050000",
"*  c #040404",
"=  c gray2",
"-  c #060606",
";  c #070707",
":  c #000C02",
">  c #000E03",
",  c #090000",
"<  c #0A0000",
"1  c gray3",
"2  c #090909",
"3  c gray4",
"4  c #0B0B0B",
"5  c #0C0C0C",
"6  c gray5",
"7  c #0E0E0E",
"8  c gray6",
"9  c #001003",
"0  c #001404",
"q  c #001604",
"w  c #001805",
"e  c #001A05",
"r  c #001E06",
"t  c #110000",
"y  c #120000",
"u  c #140000",
"i  c #150000",
"p  c #160000",
"a  c #180000",
"s  c #1B0000",
"d  c #1C0000",
"f  c #1E0000",
"g  c #101010",
"h  c #111111",
"j  c gray7",
"k  c #131313",
"l  c gray8",
"z  c #151515",
"x  c #161616",
"c  c gray9",
"v  c #181818",
"b  c #191919",
"n  c gray10",
"m  c #1B1B1B",
"M  c gray11",
"N  c #1D1D1D",
"B  c #1E1E1E",
"V  c gray12",
"C  c #002006",
"Z  c #002407",
"A  c #002607",
"S  c #003209",
"D  c #00360A",
"F  c #00380B",
"G  c #2B0000",
"H  c #2E0000",
"J  c #320000",
"K  c #202020",
"L  c gray13",
"P  c #222222",
"I  c #232323",
"U  c gray14",
"Y  c #252525",
"T  c gray15",
"R  c #272727",
"E  c #282828",
"W  c gray16",
"Q  c #2A2A2A",
"!  c gray17",
"~  c #2C2C2C",
"^  c #2D2D2D",
"/  c gray18",
"(  c #2F2F2F",
")  c gray19",
"_  c #313131",
"`  c #323232",
"'  c gray20",
"]  c #343434",
"[  c #353535",
"{  c gray21",
"}  c #373737",
"|  c gray22",
" . c #393939",
".. c #3A3A3A",
"X. c gray23",
"o. c #3C3C3C",
"O. c gray24",
"+. c #3E3E3E",
"@. c #3F3F3F",
"#. c #00420C",
"$. c #00440D",
"%. c #00460D",
"&. c #00480E",
"*. c #004C0E",
"=. c #004E0F",
"-. c #00500F",
";. c #00520F",
":. c #005410",
">. c #005610",
",. c #015711",
"<. c #005811",
"1. c #005A11",
"2. c #005C11",
"3. c #005E12",
"4. c #006012",
"5. c #006212",
"6. c #026214",
"7. c #006413",
"8. c #006A14",
"9. c #006C14",
"0. c #006E15",
"q. c #007015",
"w. c #007416",
"e. c #007616",
"r. c #037318",
"t. c #007817",
"y. c #4E0000",
"u. c #4F0000",
"i. c #500000",
"p. c #520000",
"a. c #530000",
"s. c #5A0000",
"d. c #5B0000",
"f. c #5E0000",
"g. c #5F0000",
"h. c #610000",
"j. c #640000",
"k. c gray25",
"l. c #414141",
"z. c gray26",
"x. c #444444",
"c. c gray27",
"v. c #464646",
"b. c #484848",
"n. c #494949",
"m. c gray29",
"M. c #4C4C4C",
"N. c gray30",
"B. c #4E4E4E",
"V. c gray31",
"C. c #535353",
"Z. c gray33",
"A. c #555555",
"S. c #565656",
"D. c gray34",
"F. c #585858",
"G. c #5A5A5A",
"H. c #5B5B5B",
"J. c #5D5D5D",
"K. c #5F5F5F",
"L. c #606060",
"P. c gray38",
"I. c #626262",
"U. c gray39",
"Y. c #646464",
"T. c #686868",
"R. c DimGray",
"E. c gray42",
"W. c #6D6D6D",
"Q. c gray43",
"!. c #6F6F6F",
"~. c gray44",
"^. c #717171",
"/. c #727272",
"(. c gray45",
"). c #797979",
"_. c gray48",
"`. c #7B7B7B",
"'. c #7C7C7C",
"]. c gray49",
"[. c #7E7E7E",
"{. c #008018",
"}. c #008619",
"|. c #00881A",
" X c #008C1A",
".X c #00941C",
"XX c #00961C",
"oX c #00981D",
"OX c #009A1D",
"+X c #009C1D",
"@X c #009E1E",
"#X c #008A20",
"$X c #0B8722",
"%X c #1C9C34",
"&X c #00A01E",
"*X c #00A21E",
"=X c #00A41F",
"-X c #00A820",
";X c #00AA20",
":X c #00AC20",
">X c #00B422",
",X c #00B622",
"<X c #07B528",
"1X c #00B823",
"2X c #0FB92F",
"3X c #2FA746",
"4X c #2DAF46",
"5X c #3EBA55",
"6X c #00C024",
"7X c #00C425",
"8X c #01C526",
"9X c #00CC26",
"0X c #00D428",
"qX c #00D829",
"wX c #00DA29",
"eX c #0ED433",
"rX c #00E62B",
"tX c #00EC2C",
"yX c #00E436",
"uX c #00F22E",
"iX c #01F32F",
"pX c #00F42E",
"aX c #00FA2F",
"sX c #00FC2F",
"dX c #01FF31",
"fX c #02FE3E",
"gX c #16E43D",
"hX c #11FF3E",
"jX c #03FF44",
"kX c #17F140",
"lX c #17FF43",
"zX c #1BFD46",
"xX c #3AE45A",
"cX c #25FF63",
"vX c #35F16E",
"bX c #45CD5E",
"nX c #5BFB79",
"mX c #47FB82",
"MX c #66FE9C",
"NX c #70FE8A",
"BX c #74FE8E",
"VX c #76FE8F",
"CX c #78FE91",
"ZX c #868686",
"AX c gray53",
"SX c #898989",
"DX c gray56",
"FX c #939393",
"GX c gray59",
"HX c #9B9B9B",
"JX c None",
/* pixels */
"JXJXJXJXJXJXJXJXJXJX4 4 8 8 8 8 8 8 8 4 -   JXJXJXJXJXJXJXJXJXJX",
"JXJXJXJXJXJXJXJX4 8 8 8 -           * * 8 8 8 - JXJXJXJXJXJXJXJX",
"JXJXJXJXJXJX4 k k 4       4 k 8 8 JXJXk     4 k 8   JXJXJXJXJXJX",
"JXJXJXJXJX8 k 8 *     n Q { k.O.X.| / { 8 JX    8 8 - JXJXJXJXJX",
"JXJXJXJXk l 4     k X.X./ U n l k n U / X.' 8 JX  4 l - JXJXJXJX",
"JXJXJXl l 4     / v.E 8                 8 U O.L JXJX4 l - JXJXJX",
"JXJXl l 8     { O.k     V b.R.Y.K.J.X.l JX  k X.Q   JX8 k   JXJX",
"JXJXl k     { X.1   l N.!.J.O.' ' O.D.R.l.8 JX- X./     l k   JX",
"JXl n - - { l.4   L W.D.V             V A.K.l JX4 O.L   - n -   ",
"JXn k   l N.k   L [.O.        JXJXJXJX    O.W.l JXk l.4 JXk k   ",
"n V     v./   n /.O.    JXJXJXJXJXJXJXJXJX  l.K.- JX{ /   - n - ",
"n n   V m.8   A.K.-   JXJXJXJXa.u.JXJXJXJXJX- J.O.  k v.- JXV 8 ",
"V 8   ' X.  n [.V   JXJXJX<.e.=X@X8.w JXJXJXJX/ W.8 JXO.L   k n ",
"L - 8 m./   C.R.    JXJX<.#XvXcXdXwX0.: JXJXJX  /.U   ' '   4 V ",
"L - l A.L   `.v.    JXJX7.yXMXmXaXrX&XS   JXJXJXW.O.  { X.  4 L ",
"L - l A.n   `.X.  JXJXJXe.iXjXfXpXwX X$.  JXJXJX/.N.  { O.  4 U ",
"U * k A.V   `.o.  JXJXJX2.0XiXtXwX;X0.D     JXJX`.N.  X.l.  4 U ",
"U $ JXZ.L   /.N.  JXJXJXC |.6X1XOXq.<.0   JXJXJXZXO.  O.O.  4 Q ",
"Q 4 JXN.]   m./.    JXJXJXA 4.0.4.;.r     JXJXJXSXU   O.X.  n U ",
"Q 8   O.l.  n ZXU   JXJXJXJX*.e.0.D     JXJXJXDX`.8 k A.U   ' V ",
"V L   k D.k JXC./.1 JXJXJXJX7.|.t.&.  JXJXJXGXFXv.  V K.-   ' k ",
"4 / * JXN.O.  k U.k   JXJX6.e..X}.2.$   JXJX[.W.-   N.O.  l / - ",
"JXU n   l K.v JX      JXJX>.}.;XXXq.:   JXJXJX    X.Y.8   / L   ",
"JXk ) 1 JX{ H.8 JXJXJXJXJX:.OX1X=X{.w   JXJXJXJXv.K.Q   k { 8   ",
"JXJXU U     X.l   JXJXJXJX>.2X7X>X.XA   JXJXJXJX/.X.  4 X.L     ",
"JXJX1 ' V         JXJXJXJX6.xXeX6X:XS   JXJXJXJXJX    U / -   JX",
"JXJXJX8 { v   JXJXJXJXJXJXr.nXgX9X6X$.  JXJXJXJXJXJXX.{ 4     JX",
"JXJXJXJXl n   JXJXJXJXJXJX$XNXkXwX0X4.  JXJXJXJXJXJX/ k     JXJX",
"JXJXJXJX      JXJXJXJXJX*.%XVXzXtXrX{.$   JXJXJXJXJX      JXJXJX",
"JXJXJXJXJXJXJXJXJXJXJXJX;.4XVXlXaXpX@X:   JXJXJXJXJXJXJXJXJXJXJX",
"JXJXJXJXJXJXJXJXJXJXJXJX;.bXCXhXdXdX7Xq   JXJXJXJXJXJXJXJXJXJXJX",
"JXJXJXJXJXJXJXJXJXJXJXJX2.3X5X<X>X>X&XA   JXJXJXJXJXJXJXJXJXJXJX"
};
