/* XPM */
static char *wlassistant-16[] = {
/* columns rows colors chars-per-pixel */
"16 16 144 2",
"   c black",
".  c #000101",
"X  c #010101",
"o  c #000303",
"O  c #030000",
"+  c #020202",
"@  c #010606",
"#  c #040505",
"$  c gray2",
"%  c #060606",
"&  c #070707",
"*  c #010800",
"=  c #020E00",
"-  c #0A0202",
";  c #0F0000",
":  c #09020A",
">  c #0C050D",
",  c gray3",
"<  c #090909",
"1  c #090A08",
"2  c gray4",
"3  c #0B0B0B",
"4  c #0C0C0C",
"5  c gray5",
"6  c #0E0E0E",
"7  c gray6",
"8  c #031000",
"9  c #051C00",
"0  c #0F1010",
"q  c #110000",
"w  c #101010",
"e  c #111111",
"r  c #121012",
"t  c gray7",
"y  c #121313",
"u  c #131313",
"i  c gray8",
"p  c #141515",
"a  c #151515",
"s  c #161616",
"d  c gray9",
"f  c #161919",
"g  c #171919",
"h  c #191919",
"j  c #191A1A",
"k  c gray10",
"l  c #1B1B1B",
"z  c #1B1D1D",
"x  c gray11",
"c  c #1D1C1C",
"v  c #1D1D1D",
"b  c #1E1C1E",
"n  c gray12",
"m  c #062200",
"M  c #072C00",
"N  c #083000",
"B  c #093600",
"V  c #0A3E00",
"C  c #280000",
"Z  c #330000",
"A  c #3B0202",
"S  c #3D0202",
"D  c #3E0000",
"F  c #202020",
"G  c gray13",
"H  c #222222",
"J  c #222323",
"K  c #232323",
"L  c #222424",
"P  c gray14",
"I  c #252525",
"U  c gray15",
"Y  c #272727",
"T  c #282727",
"R  c #282828",
"E  c gray16",
"W  c #2A2A2A",
"Q  c gray17",
"!  c #2C2C2C",
"~  c #2D2D2D",
"^  c gray18",
"/  c #302F2F",
"(  c #313131",
")  c #323232",
"_  c #303434",
"`  c gray21",
"'  c #383939",
"]  c gray23",
"[  c #3F3F3F",
"{  c #0E5400",
"}  c #0F5E00",
"|  c #106200",
" . c #116600",
".. c #116800",
"X. c #116A00",
"o. c #156E04",
"O. c #127000",
"+. c #157E00",
"@. c #177E06",
"#. c #197507",
"$. c #267D15",
"%. c #3F4040",
"&. c #480000",
"*. c #520000",
"=. c #5D0000",
"-. c #690000",
";. c #404141",
":. c #444545",
">. c #464646",
",. c #474646",
"<. c #474448",
"1. c #484848",
"2. c #484949",
"3. c gray29",
"4. c #4A4B4B",
"5. c #4C4C4C",
"6. c #505252",
"7. c gray37",
"8. c gray44",
"9. c #7B7B7B",
"0. c #158000",
"q. c #168800",
"w. c #1AA000",
"e. c #1CA800",
"r. c #1DAB01",
"t. c #1FB901",
"y. c #348325",
"u. c #378E26",
"i. c #22B909",
"p. c #2BC71B",
"a. c #23D600",
"s. c #25D103",
"d. c #30C812",
"f. c #25E200",
"g. c #26FB03",
"h. c #2AF802",
"j. c #3AFF25",
"k. c #4FDC34",
"l. c #53F034",
"z. c #62FF43",
"x. c #868686",
"c. c #9A9B9B",
"v. c #ADACAC",
"b. c None",
/* pixels */
"b.b.b.e 5 , , & , 4 & 5 & b.b.b.",
"b.b.e 5 & w x G R U i , , , b.b.",
"b.i 5 , G G h G x h P P e , & b.",
"h e & U h G ;.%.' ] R l G & 5   ",
"h , G x / ;.f 0 x L ' R l x , , ",
"i e U U >.@ b.0.o.b.F ;.x P 5 e ",
"e U G >.f b.@.p.i.B b.h ' x h e ",
"e ( T 4., -.i.j.g. .1 6.5.G F e ",
"e R U 4.p S +.a.e.V e c.7.F G u ",
"f U U >.G b.m X.{ * b.v.4.G G h ",
"h i ^ R _ ; } +.|   b.x.x ( i x ",
"h e R R o b.o.w.q.= b.5.( Q h u ",
"r x i i   b.#.d.r.9 b.b.4.u G   ",
"b.i h   - b.$.l.s.N b.b.b.h < b.",
"b.b.,   b.b.y.z.h.{   b., &   b.",
"b.b.b.b.b.=.u.k.f.X.  b.b.b.b.b."
};
