/* XPM */
static char * kandy_16_xpm[] = {
"16 16 26 1",
" 	c None",
".	c #0A0C08",
"+	c #323331",
"@	c #434344",
"#	c #993A3A",
"$	c #496168",
"%	c #5F625E",
"&	c #356EA3",
"*	c #686469",
"=	c #16925A",
"-	c #6C6F6C",
";	c #55828F",
">	c #7B7D7B",
",	c #3E94AA",
"'	c #329CC1",
")	c #758391",
"!	c #918085",
"~	c #5598C8",
"{	c #898A8A",
"]	c #3BB7D4",
"^	c #959595",
"/	c #A3A4A3",
"(	c #5BD1EF",
"_	c #B2B4B1",
":	c #BBBDBA",
"<	c #C8CAC7",
"                ",
"       ++       ",
"     +->*{^     ",
"     +:>>{^     ",
"     @<$~~*     ",
"     +<~('$     ",
"     @:,]]$     ",
"     +:;];*     ",
"     +:{){@     ",
"     +/@)^^     ",
"     @/)){/     ",
"     +_))^/     ",
"     +/))//     ",
"      >/_/+     ",
"                ",
"                "};
