/* XPM */
static char * icon_xpm[] = {
"48 48 418 2",
"  	c None",
". 	c #212121",
"+ 	c #1C1C1C",
"@ 	c #6B6B4E",
"# 	c #686850",
"$ 	c #39393A",
"% 	c #3D3D3D",
"& 	c #424242",
"* 	c #474747",
"= 	c #636352",
"- 	c #DFDF11",
"; 	c #A5A530",
"> 	c #414164",
", 	c #232323",
"' 	c #5A5A5C",
") 	c #9A9A9E",
"! 	c #C2C2C2",
"~ 	c #989898",
"{ 	c #4C4C4C",
"] 	c #222222",
"^ 	c #7E7E7E",
"/ 	c #BFBFBF",
"( 	c #444444",
"_ 	c #242424",
": 	c #2D2D2D",
"< 	c #7D7D45",
"[ 	c #B5B527",
"} 	c #FFFF00",
"| 	c #DEDE11",
"1 	c #9A9A35",
"2 	c #575759",
"3 	c #353535",
"4 	c #484848",
"5 	c #838384",
"6 	c #D3D3D5",
"7 	c #FFFFFF",
"8 	c #9D9D9D",
"9 	c #393939",
"0 	c #717171",
"a 	c #848484",
"b 	c #383838",
"c 	c #434343",
"d 	c #040404",
"e 	c #F4F406",
"f 	c #7C7C45",
"g 	c #7F7F7F",
"h 	c #C1C1C1",
"i 	c #EBEBEB",
"j 	c #F1F1F1",
"k 	c #8C8C8C",
"l 	c #464646",
"m 	c #ACACAC",
"n 	c #737373",
"o 	c #1F1F1F",
"p 	c #303030",
"q 	c #161616",
"r 	c #121212",
"s 	c #414141",
"t 	c #535353",
"u 	c #757575",
"v 	c #ADADAD",
"w 	c #525252",
"x 	c #2C2C2C",
"y 	c #575757",
"z 	c #2B2B2B",
"A 	c #0F0F0F",
"B 	c #676767",
"C 	c #6E6E6E",
"D 	c #585858",
"E 	c #FEFE01",
"F 	c #D8D814",
"G 	c #202020",
"H 	c #4D4D4D",
"I 	c #828282",
"J 	c #949494",
"K 	c #8E8E8E",
"L 	c #767676",
"M 	c #7C7C7C",
"N 	c #2F2F2F",
"O 	c #333333",
"P 	c #292928",
"Q 	c #5C5C5C",
"R 	c #4E4E4E",
"S 	c #404040",
"T 	c #787878",
"U 	c #FEFE00",
"V 	c #555555",
"W 	c #2A2A2A",
"X 	c #747474",
"Y 	c #4E4E4F",
"Z 	c #141415",
"` 	c #323232",
" .	c #494949",
"..	c #727272",
"+.	c #A1A135",
"@.	c #3D3D5C",
"#.	c #29292E",
"$.	c #5C5C5D",
"%.	c #C2C2C3",
"&.	c #959595",
"*.	c #A9A9A9",
"=.	c #2E2E2E",
"-.	c #2C2C2B",
";.	c #414142",
">.	c #8D8D90",
",.	c #676769",
"'.	c #272726",
").	c #1E1E1E",
"!.	c #B0B0B0",
"~.	c #4B4B4B",
"{.	c #DEDE13",
"].	c #929233",
"^.	c #3D3D3E",
"/.	c #767688",
"(.	c #DEDEDF",
"_.	c #A0A09F",
":.	c #838383",
"<.	c #282828",
"[.	c #343434",
"}.	c #69696B",
"|.	c #727274",
"1.	c #6F6F71",
"2.	c #7F7F81",
"3.	c #888888",
"4.	c #F6F603",
"5.	c #7C7C3E",
"6.	c #929293",
"7.	c #D7D7DB",
"8.	c #EFEFF0",
"9.	c #A3A3A3",
"0.	c #6B6B6B",
"a.	c #171717",
"b.	c #1F1F21",
"c.	c #252527",
"d.	c #5E5E5F",
"e.	c #A5A5A8",
"f.	c #BEBEC0",
"g.	c #3C3C3C",
"h.	c #F6F604",
"i.	c #A5A53F",
"j.	c #53536D",
"k.	c #434347",
"l.	c #7D7D7D",
"m.	c #A1A1A1",
"n.	c #2A2A29",
"o.	c #1E1E20",
"p.	c #000007",
"q.	c #0C0C14",
"r.	c #2B2B2A",
"s.	c #292929",
"t.	c #3E3E3F",
"u.	c #424243",
"v.	c #3A3A3A",
"w.	c #AFAFAF",
"x.	c #666666",
"y.	c #000000",
"z.	c #DEDE0D",
"A.	c #8E8E29",
"B.	c #363637",
"C.	c #4C4C5D",
"D.	c #6A6A68",
"E.	c #010112",
"F.	c #11110F",
"G.	c #737300",
"H.	c #595910",
"I.	c #212129",
"J.	c #262628",
"K.	c #272727",
"L.	c #868686",
"M.	c #3E3E5D",
"N.	c #939333",
"O.	c #F8F805",
"P.	c #868649",
"Q.	c #373738",
"R.	c #0F0F14",
"S.	c #17171C",
"T.	c #0C0C0D",
"U.	c #3C3C00",
"V.	c #A8A812",
"W.	c #171727",
"X.	c #232326",
"Y.	c #262626",
"Z.	c #A0A0A0",
"`.	c #0C0C0C",
" +	c #2B2B30",
".+	c #7B7B3E",
"++	c #FBFB09",
"@+	c #7D7D16",
"#+	c #00001A",
"$+	c #676700",
"%+	c #F4F400",
"&+	c #949411",
"*+	c #161625",
"=+	c #212124",
"-+	c #1D1D1D",
";+	c #ABABAB",
">+	c #0D0D0D",
",+	c #4A4A49",
"'+	c #6D6D7D",
")+	c #949495",
"!+	c #A5A540",
"~+	c #CDCD05",
"{+	c #83830D",
"]+	c #767600",
"^+	c #C6C600",
"/+	c #8F8F10",
"(+	c #141422",
"_+	c #1F1F22",
":+	c #1A1A1A",
"<+	c #707070",
"[+	c #0B0B0B",
"}+	c #CFCFCE",
"|+	c #DADADF",
"1+	c #53536E",
"2+	c #8F8F29",
"3+	c #F8F806",
"4+	c #8F8F0F",
"5+	c #121220",
"6+	c #1D1D20",
"7+	c #999999",
"8+	c #F9F9F9",
"9+	c #C0C0C0",
"0+	c #F0F0F1",
"a+	c #444448",
"b+	c #87874A",
"c+	c #FCFC09",
"d+	c #8E8E0E",
"e+	c #10101E",
"f+	c #1B1B1E",
"g+	c #141414",
"h+	c #A2A2A2",
"i+	c #6C6C6C",
"j+	c #5B5B5B",
"k+	c #212120",
"l+	c #808080",
"m+	c #979797",
"n+	c #909090",
"o+	c #747473",
"p+	c #424253",
"q+	c #303031",
"r+	c #75750F",
"s+	c #CACA01",
"t+	c #8D8D0D",
"u+	c #0E0E1D",
"v+	c #1A1A1D",
"w+	c #454545",
"x+	c #777777",
"y+	c #A8A8A8",
"z+	c #F6F6F6",
"A+	c #B7B7B7",
"B+	c #5E5E5E",
"C+	c #6A6A6A",
"D+	c #3F3F3F",
"E+	c #8B8B8B",
"F+	c #535352",
"G+	c #000004",
"H+	c #00000E",
"I+	c #7D7D08",
"J+	c #8C8C0D",
"K+	c #0C0C1B",
"L+	c #18181B",
"M+	c #191919",
"N+	c #1B1B1B",
"O+	c #929292",
"P+	c #FCFCFC",
"Q+	c #FAFAFA",
"R+	c #E5E5E5",
"S+	c #505050",
"T+	c #59595C",
"U+	c #98989C",
"V+	c #B9B9BA",
"W+	c #ECECEC",
"X+	c #E0E0E0",
"Y+	c #565656",
"Z+	c #0F0F0E",
"`+	c #05050A",
" @	c #000003",
".@	c #8B8B0C",
"+@	c #0A0A19",
"@@	c #161619",
"#@	c #252525",
"$@	c #060606",
"%@	c #373737",
"&@	c #C8C8C8",
"*@	c #DEDEDE",
"=@	c #7B7B7B",
"-@	c #595959",
";@	c #D7D7D7",
">@	c #616161",
",@	c #0B0B0A",
"'@	c #040405",
")@	c #666600",
"!@	c #C7C700",
"~@	c #8B8B0B",
"{@	c #060615",
"]@	c #07070A",
"^@	c #6C6C6B",
"/@	c #939393",
"(@	c #EDEDED",
"_@	c #F3F3F3",
":@	c #878787",
"<@	c #818181",
"[@	c #030305",
"}@	c #060604",
"|@	c #3F3F00",
"1@	c #F5F500",
"2@	c #888808",
"3@	c #050514",
"4@	c #1C1C1E",
"5@	c #4F4F4F",
"6@	c #181818",
"7@	c #F2F2F2",
"8@	c #050505",
"9@	c #000002",
"0@	c #000001",
"a@	c #828200",
"b@	c #0D0D1D",
"c@	c #8C8C8F",
"d@	c #99999D",
"e@	c #626264",
"f@	c #3E3E3E",
"g@	c #969696",
"h@	c #636363",
"i@	c #010103",
"j@	c #4A4A01",
"k@	c #989802",
"l@	c #868603",
"m@	c #818103",
"n@	c #838303",
"o@	c #848404",
"p@	c #848405",
"q@	c #858505",
"r@	c #868606",
"s@	c #858504",
"t@	c #808000",
"u@	c #6F6F2F",
"v@	c #5F5F66",
"w@	c #5F5F60",
"x@	c #F5F5F5",
"y@	c #575758",
"z@	c #30302F",
"A@	c #515151",
"B@	c #020202",
"C@	c #010101",
"D@	c #030302",
"E@	c #000005",
"F@	c #000006",
"G@	c #000008",
"H@	c #000009",
"I@	c #00000A",
"J@	c #00000C",
"K@	c #070717",
"L@	c #5C5C64",
"M@	c #868685",
"N@	c #0A0A0A",
"O@	c #F7F7F7",
"P@	c #898989",
"Q@	c #363636",
"R@	c #090909",
"S@	c #010104",
"T@	c #020205",
"U@	c #030306",
"V@	c #040407",
"W@	c #060609",
"X@	c #111114",
"Y@	c #828285",
"Z@	c #5B5B5C",
"`@	c #C9C9C9",
" #	c #F4F4F4",
".#	c #D0D0D0",
"+#	c #030303",
"@#	c #5D5D5D",
"##	c #8D8D8D",
"$#	c #545454",
"%#	c #646465",
"&#	c #828284",
"*#	c #313131",
"=#	c #797979",
"-#	c #0E0E0E",
";#	c #AAAAAF",
">#	c #C3C3C3",
",#	c #F0F0F0",
"'#	c #606060",
")#	c #FBFBFB",
"!#	c #CCCCCC",
"~#	c #646463",
"{#	c #656565",
"]#	c #D8D8D8",
"^#	c #8F8F8F",
"/#	c #B6B6B6",
"(#	c #8A8A8A",
"_#	c #545453",
":#	c #4A4A4A",
"<#	c #686869",
"[#	c #818184",
"}#	c #9E9E9E",
"|#	c #A7A7A7",
"1#	c #818183",
"2#	c #5A5A5A",
"3#	c #C5C5C5",
"4#	c #636365",
"5#	c #3B3B3B",
"6#	c #A6A6A6",
"7#	c #EEEEEE",
"8#	c #B9B9B9",
"9#	c #F8F8F8",
"0#	c #DDDDDD",
"a#	c #A5A5A5",
"b#	c #080808",
"c#	c #AEAEAE",
"d#	c #060607",
"e#	c #272728",
"f#	c #949498",
"g#	c #4A4A4C",
"h#	c #121211",
"i#	c #6D6D6D",
"j#	c #8C8C8D",
"k#	c #353537",
"                                                                                                ",
"                                                                                                ",
"                                                                                                ",
"                                                  . +                                           ",
"                @ #                             $ % & *                                         ",
"              = - ; >                         , ' ) ! ~ { ] ^ / ( _ :                           ",
"            < [ } | 1 2                     3 4 5 6 7 8 9 0 a 0 3 b c d                         ",
"          = [ } } } e f 2                 _ 9 g h i j k l m n o p * 4 q r                       ",
"        @ - } } } } } e 1 >                 s h 7 j t u v w x p y z A B C D                     ",
"        # ; | } } E } } F 1 2         G   p H I J K L M u N O ( P . p Q R S T                   ",
"          > 1 e } } } U } e f 2     $ % s w V W ] 4 v X o W * Y Z ` V N N  ...X                 ",
"            2 f e } U } } } e +.@.#.$.) %.&.H _ C *.R =.z : -.;.>.,.'.).L !.~.: =.              ",
"              2 1 F } } E } } {.].^./.(.7 _.b 0 :.C : ] x : <.[.}.|.1.2.3.L [.<.=..             ",
"                > 1 e } } } U } 4.5.6.7.8.K ( 9.0.a.b.c.W W x z . d.e.f.0 o x : p S g.          ",
"                  2 f e } U } } } h.i.j.k.l.m.l n.o.p.q.r.n.W W s.O t.u.b : N ] v.w.x.y.        ",
"                    2 +.{.} } E } } z.A.B.C.D.'.E.F.G.H.I.J.<.s.W K._ , s.: . V L.n =.y.        ",
"                      M.N.4.} } } U } O.P.Q.R.S.T.U.U V.W.X.Y.K.<.s.W W s.x b L.Z.`.y.y.        ",
"                       +t..+h.} U } } } ++@+#+p.$+%+} &+*+=+_ Y.Y.K.<.W -+3 ;+0 >+y.y.y.y.      ",
"                    3 ,+'+)+!+z.} } E } } ~+{+]+^+} } /+(+_+] _ _ Y._ :+R g <+x y.y.S u [+y.    ",
"                  _ 9 g }+|+1+2+3+} } } U } } } } } } 4+5+6+. ] ] . _ p l.7+`.y.y.>+*.8+s.      ",
"                    s 9+7 0+a+Q.b+c+} U } } } } } } } d+e+f+o G . g+: h+i+`.y.y.>+h 7 i j+      ",
"              k+  <.( l+m+n+o+p+q+r+s+} } } } } } } } t+u+v+).+ r w+x+0.s.y.y.S y+7 7 z+A+L.    ",
"            $ % S B+C+=.. D+E+F+G+H+I+} } } } } } } } J+K+L+M+N+K.X O+[+y.y.y.L P+P+7 Q+R+n+S+  ",
"          , T+U+V+W+X+g.Y+3.: Z+`+ @]+} } } } } } } } .@+@@@`.#@7+B `.y.y.y.y.$@%@&@P+*@=@-@y   ",
"        3 4 5 6 7 ;@n+<+>@ .,@y.'@)@!@} } } } } } } } ~@{@]@g.C x.s.y.y.S x+`.y.y.^@/@&.Y+~.    ",
"      _ 9 g ! (@_@:@` <@l y.[@}@|@1@} } } } } } } } } 2@3@4@0.E+[+y.y.>+*.8+s.    3 t.5@j+      ",
"      6@s h 7 7@D >@^ _ 8@9@0@]+} } } } } } } } } } } a@b@c@>@[+y.y.>+h 7 i Q     d@e@%@n a     ",
"      f@R M ~ g@h@5@9 y.y.i@0@j@k@l@m@n@o@o@p@q@r@s@t@u@v@w@Y.y.y.S y+7 7 x@w.^     y@z@0       ",
"      j+A@x a.z =@{ B@y.y.C@D@ @G+E@E@F@G@H@H@I@H@J@K@L@M@N@y.y.y.L P+P+7 O@;@P@S+    p         ",
"      Q@Q@  y.d N@t x+R@y.C@y.0@9@9@S@T@[@U@V@W@y.X@Y@Z@[+y.y.y.y.$@b `@ #.#T Y+t   W p         ",
"      =.=.    y.y., V V ] y.y.C@y.C@B@+#+#8@+#y.W @#j+#@y.y.S x+`.y.y.i+K ##$#%#&#              ",
"        *#    y.y.y.N@=#V N@y.y.y.y.y.C@C@y.+#-#j+^ N@y.y.>+*.Q+W     3 D+5@D &#;#              ",
"            y.y.y.y.y.N@V =#N@y.y.y.y.y.C@y.[+=@y N@y.y.A >#7 ,#'#    d@e@%@..3.                ",
"              y.y.C@y.y.] V V ] y.y.C@y.y., V Y+, y.y.Q@O+_@)#!#L.~#    y@p 0                   ",
"                y.y.y.y.y.N@=#V N@y.y.y.N@V =#N@y.y.y.{#;@]#h 9.^#i+$#    p                     ",
"                y.y.y.y.y.y.N@V =#N@y.N@=#V N@y.y.y.y.8@p ;+/#(#{#Y+_#  W p                     ",
"                  y.y.y.C@y.y., t H :#~.t _ y.y.s =#>+y.y.B+..C _#<#[#                          ",
"                    y.y.y.y.y.y.R@T }#M N@y.y.-#|#z+W     %@& F+D 1#;#                          ",
"                      y.y.y.y.y.$@Q@2#Y+[+y.-#3#P+.#Q     d@4#b ..3.                            ",
"                        y.y.y.y.C@`.v.H +#5#6#O@7#8#a {#    y@p 0                               ",
"                          y.y.y.y.y.p A@y.n 9#0#h a#^#i+$#    p                                 ",
"                            y.y.y.y.*#y b#y.[.c#A+(#{#Y+_#  W p                                 ",
"                              y.8@s.p K.-+y.y.& {#n $#<#[#                                      ",
"                                `.y =.y.z     d#e#S+D &#;#                                      ",
"                                              f#g#h#i#j#                                        ",
"                                                k#y.x.                                          ",
"                                                y.y.                                            ",
"                                                y.y.                                            "};
