/* XPM */
static char * hi32_app_bibletime_xpm[] = {
"32 32 580 2",
"  	c None",
". 	c #081AAC",
"+ 	c #4A57BB",
"@ 	c #848DCE",
"# 	c #C9CDE2",
"$ 	c #F6F7E6",
"% 	c #0113AB",
"& 	c #2434AA",
"* 	c #6570AC",
"= 	c #AAB0B6",
"- 	c #EDEFC5",
"; 	c #FFFFCE",
"> 	c #FFFFD2",
", 	c #FFFFC7",
"' 	c #FFFFBD",
") 	c #0F20A7",
"! 	c #4A5799",
"~ 	c #8E9690",
"{ 	c #D3D68D",
"] 	c #FEFE92",
"^ 	c #FFFF9A",
"/ 	c #FFFFA1",
"( 	c #FFFFA6",
"_ 	c #FFFFAA",
": 	c #FFFFAC",
"< 	c #FCFCAA",
"[ 	c #D4D7A6",
"} 	c #8D94A5",
"| 	c #4854AB",
"1 	c #0416A9",
"2 	c #314093",
"3 	c #747E77",
"4 	c #BABF61",
"5 	c #F5F656",
"6 	c #FFFF5C",
"7 	c #FFFF64",
"8 	c #FFFF6C",
"9 	c #FFFF73",
"0 	c #FFFF79",
"a 	c #FFFF7E",
"b 	c #FDFD82",
"c 	c #DCDE89",
"d 	c #969D96",
"e 	c #5560A1",
"f 	c #3D4AB5",
"g 	c #5B66C8",
"h 	c #8991D7",
"i 	c #AEB4E2",
"j 	c #3F4CBC",
"k 	c #5C6875",
"l 	c #FFFF1D",
"m 	c #FFFF25",
"n 	c #FFFF2E",
"o 	c #FFFF36",
"p 	c #FFFF3E",
"q 	c #FFFF45",
"r 	c #FEFE4B",
"s 	c #E3E55A",
"t 	c #9FA676",
"u 	c #606B92",
"v 	c #404DB0",
"w 	c #525EC5",
"x 	c #8089D4",
"y 	c #ABB1E1",
"z 	c #B6BBE4",
"A 	c #B3B9E2",
"B 	c #AEB4E1",
"C 	c #A6ADDE",
"D 	c #545FC3",
"E 	c #2433B4",
"F 	c #919956",
"G 	c #F4F410",
"H 	c #FDFD10",
"I 	c #E9EA23",
"J 	c #A9AE4F",
"K 	c #6C757B",
"L 	c #424EA6",
"M 	c #414EBF",
"N 	c #6570CA",
"O 	c #878FD4",
"P 	c #939BD7",
"Q 	c #9AA2D8",
"R 	c #9EA6DB",
"S 	c #A1A8DC",
"T 	c #A1A9DC",
"U 	c #9FA7DB",
"V 	c #9BA3DA",
"W 	c #969ED8",
"X 	c #636ECA",
"Y 	c #2E3DBA",
"Z 	c #6974CB",
"` 	c #3644B4",
" .	c #2E3CA6",
"..	c #2A39B7",
"+.	c #414FBE",
"@.	c #5662C3",
"#.	c #606CC5",
"$.	c #6A76C8",
"%.	c #737ECB",
"&.	c #7A85CE",
"*.	c #B3AFB6",
"=.	c #ECE2B0",
"-.	c #A4A4B6",
";.	c #8D96D4",
">.	c #8D96D5",
",.	c #8B94D4",
"'.	c #8891D3",
").	c #838DD1",
"!.	c #6D77CD",
"~.	c #1E2DB4",
"{.	c #747FCB",
"].	c #5562C0",
"^.	c #3A4AB6",
"/.	c #3444B4",
"(.	c #3E4EB7",
"_.	c #4857BB",
":.	c #515FBF",
"<.	c #5A67C2",
"[.	c #626EC5",
"}.	c #6974C7",
"|.	c #D5CDB5",
"1.	c #F0F159",
"2.	c #B9B067",
"3.	c #7883CD",
"4.	c #7983CD",
"5.	c #7782CC",
"6.	c #757FCB",
"7.	c #707CCA",
"8.	c #0F1C91",
"9.	c #0C1DAF",
"0.	c #737DCB",
"a.	c #515FBE",
"b.	c #3344B3",
"c.	c #2738AF",
"d.	c #3041B2",
"e.	c #3949B6",
"f.	c #4251B9",
"g.	c #4958BC",
"h.	c #505EBE",
"i.	c #5664C0",
"j.	c #B9B4B0",
"k.	c #EDEE69",
"l.	c #C5BB4B",
"m.	c #6470C5",
"n.	c #3B4BB6",
"o.	c #2639AE",
"p.	c #162AAA",
"q.	c #0E22AB",
"r.	c #031298",
"s.	c #6C77CA",
"t.	c #4E5CBD",
"u.	c #2D3DB1",
"v.	c #192BAA",
"w.	c #2133AD",
"x.	c #293AB0",
"y.	c #3141B3",
"z.	c #3848B5",
"A.	c #3E4EB8",
"B.	c #4453BA",
"C.	c #9392A0",
"D.	c #E6E975",
"E.	c #D1C639",
"F.	c #5B629F",
"G.	c #82838A",
"H.	c #B6B068",
"I.	c #A59C50",
"J.	c #031DA5",
"K.	c #011AA8",
"L.	c #00119F",
"M.	c #0012AB",
"N.	c #5F6BC7",
"O.	c #2839AF",
"P.	c #0C1FA5",
"Q.	c #1124A7",
"R.	c #182CAA",
"S.	c #1F33AD",
"T.	c #263AB0",
"U.	c #3746AB",
"V.	c #666A97",
"W.	c #ACA57D",
"X.	c #D7DB6B",
"Y.	c #D0D251",
"Z.	c #DDE091",
"`.	c #D1D669",
" +	c #D1D346",
".+	c #B2A83E",
"++	c #0322AA",
"@+	c #0121AC",
"#+	c #0011A5",
"$+	c #515EC3",
"%+	c #5665C1",
"&+	c #2C3FB2",
"*+	c #061EA6",
"=+	c #031CA6",
"-+	c #0721A8",
";+	c #1A30A4",
">+	c #A3A082",
",+	c #CDCA71",
"'+	c #CED26E",
")+	c #C8CE64",
"!+	c #C1C95E",
"~+	c #BFC757",
"{+	c #BFB947",
"]+	c #959354",
"^+	c #5B6673",
"/+	c #1130A4",
"(+	c #0227B0",
"_+	c #0328B0",
":+	c #0013AA",
"<+	c #4351C0",
"[+	c #5C6EC6",
"}+	c #3149B8",
"|+	c #0A27AC",
"1+	c #0120AA",
"2+	c #0121AB",
"3+	c #30418E",
"4+	c #D0C949",
"5+	c #C6C24C",
"6+	c #A3A35A",
"7+	c #73796D",
"8+	c #CDCC8C",
"9+	c #BAC269",
"0+	c #475585",
"a+	c #032AB2",
"b+	c #032BB3",
"c+	c #032CB4",
"d+	c #032DB4",
"e+	c #032EB5",
"f+	c #0118AD",
"g+	c #3443BC",
"h+	c #6276CB",
"i+	c #3853BE",
"j+	c #0F30B2",
"k+	c #0225AE",
"l+	c #0226AF",
"m+	c #2D4494",
"n+	c #1233A7",
"o+	c #032AB3",
"p+	c #032CB3",
"q+	c #B4B69B",
"r+	c #B3C080",
"s+	c #606C80",
"t+	c #0430B7",
"u+	c #0431B7",
"v+	c #0432B8",
"w+	c #0433B9",
"x+	c #0434BA",
"y+	c #021EB0",
"z+	c #2434B7",
"A+	c #697FD0",
"B+	c #3F5CC4",
"C+	c #153AB8",
"D+	c #032DB5",
"E+	c #042EB6",
"F+	c #042FB6",
"G+	c #0431B8",
"H+	c #949DA1",
"I+	c #B0BF94",
"J+	c #77827F",
"K+	c #0535BB",
"L+	c #0536BC",
"M+	c #0538BD",
"N+	c #0348C1",
"O+	c #045DC6",
"P+	c #1972CC",
"Q+	c #2B84D0",
"R+	c #2082D0",
"S+	c #0472CB",
"T+	c #1526B2",
"U+	c #6F86D4",
"V+	c #4665C9",
"W+	c #1C44BE",
"X+	c #0432B9",
"Y+	c #0537BD",
"Z+	c #7485A3",
"`+	c #AFC0A8",
" @	c #8B9580",
".@	c #063BC0",
"+@	c #0542C2",
"@@	c #0D69CA",
"#@	c #68A5DA",
"$@	c #CCCFDF",
"%@	c #F3E5E9",
"&@	c #F1D4CC",
"*@	c #F2E4E5",
"=@	c #CED1E0",
"-@	c #69A5D9",
";@	c #0C77CC",
">@	c #0516AD",
",@	c #7289D6",
"'@	c #4B6ECE",
")@	c #224DC3",
"!@	c #0637BD",
"~@	c #0539BE",
"{@	c #053ABF",
"]@	c #053BC0",
"^@	c #063CC1",
"/@	c #063DC1",
"(@	c #546FA4",
"_@	c #B1C2BA",
":@	c #9DA585",
"<@	c #0647C5",
"[@	c #1A78CE",
"}@	c #B0B5CB",
"|@	c #FAC0BB",
"1@	c #FFCECB",
"2@	c #FEDBD9",
"3@	c #E17D52",
"4@	c #FACFC5",
"5@	c #FFD3CD",
"6@	c #FCC6BB",
"7@	c #B4B6C8",
"8@	c #167CCE",
"9@	c #687FD3",
"0@	c #5276D3",
"a@	c #2957C9",
"b@	c #083EC2",
"c@	c #063DC2",
"d@	c #063EC3",
"e@	c #063FC4",
"f@	c #0640C4",
"g@	c #0741C5",
"h@	c #0742C6",
"i@	c #335BAC",
"j@	c #B6C5C1",
"k@	c #9BAB99",
"l@	c #1270C5",
"m@	c #A6A3B8",
"n@	c #FEA694",
"o@	c #FFB0A5",
"p@	c #FFB9B3",
"q@	c #FFC2BE",
"r@	c #3C2F2F",
"s@	c #F9C0BA",
"t@	c #FFBFB4",
"u@	c #FFB7A6",
"v@	c #FFAE95",
"w@	c #ABA4B0",
"x@	c #0774CB",
"y@	c #5B71CF",
"z@	c #587FD7",
"A@	c #2F60CE",
"B@	c #0C46C7",
"C@	c #0743C7",
"D@	c #0744C7",
"E@	c #0745C8",
"F@	c #0746C9",
"G@	c #0747CA",
"H@	c #0848CB",
"I@	c #154FC1",
"J@	c #B9C2B7",
"K@	c #5594C4",
"L@	c #518BC1",
"M@	c #FA9070",
"N@	c #FF957C",
"O@	c #FF9B89",
"P@	c #FFA193",
"Q@	c #FFA69B",
"R@	c #281A18",
"S@	c #F8A497",
"T@	c #FFA795",
"U@	c #FFA38A",
"V@	c #FF9E7D",
"W@	c #FD9A6F",
"X@	c #5488B9",
"Y@	c #4D62C9",
"Z@	c #5F87DC",
"`@	c #3669D3",
" #	c #104ECC",
".#	c #0849CB",
"+#	c #084ACC",
"@#	c #084BCD",
"##	c #084CCE",
"$#	c #084DCF",
"%#	c #084ECF",
"&#	c #094FD0",
"*#	c #6A87A4",
"=#	c #237DC3",
"-#	c #AD8480",
";#	c #FF8152",
">#	c #FF835F",
",#	c #FF8769",
"'#	c #FF8A72",
")#	c #FF8D77",
"!#	c #281613",
"~#	c #F88C74",
"{#	c #FF8A6A",
"]#	c #FF7A4E",
"^#	c #FF7138",
"/#	c #FF7029",
"(#	c #B17356",
"_#	c #006FC8",
":#	c #3D51C3",
"<#	c #658FE0",
"[#	c #3C72D8",
"}#	c #1556D1",
"|#	c #094ED0",
"1#	c #094FD1",
"2#	c #0950D2",
"3#	c #0951D3",
"4#	c #0952D3",
"5#	c #0953D4",
"6#	c #0A54D5",
"7#	c #0957D5",
"8#	c #0873CB",
"9#	c #E1743F",
"0#	c #FF7235",
"a#	c #FF7340",
"b#	c #FF7448",
"c#	c #FF764E",
"d#	c #F97551",
"e#	c #200F0A",
"f#	c #F35222",
"g#	c #FF480A",
"h#	c #FF4E08",
"i#	c #FF5708",
"j#	c #FF6109",
"k#	c #EF6C15",
"l#	c #0370C8",
"m#	c #2D3EBB",
"n#	c #6B96E4",
"o#	c #437ADD",
"p#	c #1A5FD7",
"q#	c #0954D5",
"r#	c #0A55D6",
"s#	c #0A56D6",
"t#	c #0A57D7",
"u#	c #0A58D8",
"v#	c #0A59D9",
"w#	c #0A5ADA",
"x#	c #095DD8",
"y#	c #0970C4",
"z#	c #E56C28",
"A#	c #E66C32",
"B#	c #FF651E",
"C#	c #FF6526",
"D#	c #FF642A",
"E#	c #993B1A",
"F#	c #AAAAAA",
"G#	c #953009",
"H#	c #FF5208",
"I#	c #FF5808",
"J#	c #EC6B25",
"K#	c #F2721D",
"L#	c #1071BE",
"M#	c #1E2EB5",
"N#	c #719CE6",
"O#	c #4982E1",
"P#	c #2068DC",
"Q#	c #0A5AD9",
"R#	c #0B5BDA",
"S#	c #0B5CDB",
"T#	c #0B5DDC",
"U#	c #0B5EDD",
"V#	c #0B5FDE",
"W#	c #0B60DE",
"X#	c #0A62DD",
"Y#	c #0470C7",
"Z#	c #EA701A",
"`#	c #FB690F",
" $	c #FF6209",
".$	c #FF5D0A",
"+$	c #FF5909",
"@$	c #892E04",
"#$	c #523120",
"$$	c #D54C07",
"%$	c #FF5E08",
"&$	c #FF6409",
"*$	c #FF6B09",
"=$	c #F87314",
"-$	c #F77B13",
";$	c #0971C3",
">$	c #0D1EAF",
",$	c #769DE6",
"'$	c #4F8AE6",
")$	c #2770E1",
"!$	c #0C60DE",
"~$	c #0B60DF",
"{$	c #0C61E0",
"]$	c #0C62E1",
"^$	c #0C64E1",
"/$	c #0C65E2",
"($	c #0C66E3",
"_$	c #0C67E3",
":$	c #016FCC",
"<$	c #BF773A",
"[$	c #FF7409",
"}$	c #FF6E09",
"|$	c #FF6909",
"1$	c #F86309",
"2$	c #260F01",
"3$	c #DA5608",
"4$	c #FF6709",
"5$	c #FF6A09",
"6$	c #FF7009",
"7$	c #FF760A",
"8$	c #FF7E0A",
"9$	c #D3822B",
"0$	c #016FC8",
"a$	c #5C7BD7",
"b$	c #5592EA",
"c$	c #2D79E5",
"d$	c #0E67E3",
"e$	c #0D67E4",
"f$	c #0D68E5",
"g$	c #0C66E4",
"h$	c #0952D6",
"i$	c #0639C5",
"j$	c #0220B4",
"k$	c #004DBD",
"l$	c #607781",
"m$	c #FF800A",
"n$	c #FF7A0A",
"o$	c #D15F08",
"p$	c #6B3104",
"q$	c #FF7209",
"r$	c #FF770A",
"s$	c #FF7C0A",
"t$	c #FF820A",
"u$	c #FF890A",
"v$	c #757E72",
"w$	c #0065B7",
"x$	c #1628B3",
"y$	c #5182E0",
"z$	c #3482EA",
"A$	c #116DE7",
"B$	c #0B5FDF",
"C$	c #0746CE",
"D$	c #042DBD",
"E$	c #0116AD",
"F$	c #00119E",
"G$	c #000E85",
"H$	c #0570C5",
"I$	c #C68435",
"J$	c #FF870A",
"K$	c #FF830A",
"L$	c #FF810C",
"M$	c #FF810E",
"N$	c #FF8210",
"O$	c #FF8410",
"P$	c #FF870F",
"Q$	c #FF8A0D",
"R$	c #FF8E0C",
"S$	c #D58D2A",
"T$	c #0A71C2",
"U$	c #081AAE",
"V$	c #142BB6",
"W$	c #051EB2",
"X$	c #0012A5",
"Y$	c #000F93",
"Z$	c #1973B7",
"`$	c #D28E32",
" %	c #FF981C",
".%	c #FF9A26",
"+%	c #FC982E",
"@%	c #EA7F33",
"#%	c #FEA033",
"$%	c #FFA231",
"%%	c #FFA32B",
"&%	c #DF9D3A",
"*%	c #2577B1",
"=%	c #005DA9",
"-%	c #0070CA",
";%	c #1778C4",
">%	c #98997F",
",%	c #F0AF4E",
"'%	c #FCB14E",
")%	c #EE974E",
"!%	c #FEBA5A",
"~%	c #F5B95C",
"{%	c #A2A284",
"]%	c #1979C2",
"^%	c #005FAC",
"/%	c #0572CA",
"(%	c #1E7FCC",
"_%	c #5091BC",
":%	c #689BB8",
"<%	c #5695BF",
"[%	c #016BBF",
"}%	c #00589F",
"                                                                ",
"                        . + @ # $                               ",
"                % & * = - ; > > ; , '                           ",
"          ) ! ~ { ] ^ / ( _ : : < [ } |                         ",
"  1 2 3 4 5 6 7 8 9 0 a b c d e f g h i j                       ",
"  k l m n o p q r s t u v w x y z A B C D                       ",
"  E F G H I J K L M N O P Q R S T U V W X                       ",
"  Y Z `  ...+.@.#.$.%.&.*.=.-.;.>.,.'.).!.                      ",
"  ~.{.].^./.(._.:.<.[.}.|.1.2.3.4.5.6.7.Z 8.                    ",
"  9.0.a.b.c.d.e.f.g.h.i.j.k.l.m.i.n.o.p.q.r.                    ",
"  % s.t.u.v.w.x.y.z.A.B.C.D.E.F.G.H.I.J.K.L.                    ",
"  M.N.h.O.P.Q.R.S.T.U.V.W.X.Y.Z.`. +.+++@+#+                    ",
"    $+%+&+*+=+-+;+>+,+'+)+!+~+{+]+^+/+(+_+:+                    ",
"    <+[+}+|+1+2+3+4+5+6+7+8+9+0+a+b+c+d+e+f+                    ",
"    g+h+i+j+k+l+_+m+n+o+p+q+r+s+t+u+v+w+x+y+                    ",
"    z+A+B+C+b+c+D+E+F+t+G+H+I+J+K+L+M+N+O+P+Q+R+S+              ",
"    T+U+V+W+G+X+w+x+K+L+Y+Z+`+ @.@+@@@#@$@%@&@*@=@-@;@          ",
"    >@,@'@)@!@M+~@{@]@^@/@(@_@:@<@[@}@|@1@2@3@4@5@6@7@8@        ",
"    % 9@0@a@b@c@d@e@f@g@h@i@j@k@l@m@n@o@p@q@r@s@t@u@v@w@x@      ",
"      y@z@A@B@C@D@E@F@G@H@I@J@K@L@M@N@O@P@Q@R@S@T@U@V@W@X@      ",
"      Y@Z@`@ #.#+#@###$#%#&#*#=#-#;#>#,#'#)#!#~#{#]#^#/#(#_#    ",
"      :#<#[#}#|#1#2#3#4#5#6#7#8#9#0#a#b#c#d#e#f#g#h#i#j#k#l#    ",
"      m#n#o#p#q#r#s#t#u#v#w#x#y#z#A#B#C#D#E#F#G#H#I#j#J#K#L#    ",
"      M#N#O#P#Q#R#S#T#U#V#W#X#Y#Z#`# $.$+$@$#$$$%$&$*$=$-$;$    ",
"      >$,$'$)$!$~${$]$^$/$($_$:$<$[$}$|$1$2$3$4$5$6$7$8$9$0$    ",
"      % a$b$c$d$($e$f$g$h$i$j$k$l$m$n$7$o$p$q$[$r$s$t$u$v$w$    ",
"        x$y$z$A$B$C$D$E$F$G$    H$I$J$K$L$M$N$O$P$Q$R$S$T$      ",
"          U$V$W$X$Y$              Z$`$ %.%+%@%#%$%%%&%*%=%      ",
"                                  -%;%>%,%'%)%!%~%{%]%^%        ",
"                                      /%(%_%:%<%(%[%            ",
"                                            }%                  ",
"                                                                "};
